<?xml version="1.0" encoding="UTF-8"?>
<svg id="Layer_1" data-name="Layer 1" xmlns="http://www.w3.org/2000/svg" viewBox="0 0 83.5 137.99">
  <defs>
    <style>
      .cls-1 {
        fill: #000;
        stroke-width: 0px;
      }
    </style>
  </defs>
  <path class="cls-1" d="M53.15,5.89c6.91-1.95,15.2-4.37,21.84-.3,2.47,1.51,4.6,3.85,5.34,6.7s-.36,5.91-2.39,8.08c-5.05,5.43-12.63,5.05-19.21,7.01-3.39,1.01-5.31,3.4-6.27,6.73-.82,2.86-1.3,5.94-1.23,8.91.06,2.8.66,5.73,2.32,8.04,1.91,2.65,4.83,3.98,8,4.46s6.54.21,9.69,1.12c1.35.39,2.68,1.01,3.63,2.08,1.16,1.3,1.58,3.12,1.77,4.81.32,2.86,0,6.44-2.58,8.23s-5.94,1.36-8.82,1.62c-5.57.5-11.78,3-13.74,8.71-1.26,3.69-.21,7.75-.15,11.54.06,4.12-.41,8.21-.91,12.29s-1,8.24-1.5,12.36c-.46,3.8-.69,7.72-1.47,11.48-.27,1.32-.65,2.7-1.56,3.73-1.13,1.29-2.85,1.5-4.47,1.49-2.89-.02-6.13-.69-8.31-2.72-2.59-2.42-2.71-6.34-3.12-9.64-.5-4.06-.94-8.12-1.32-12.19-.76-8.14-1.28-16.3-1.57-24.46-.1-2.78-.29-5.79-1.73-8.25-1.62-2.77-4.37-3.5-7.42-3.31s-5.95-.43-8.48-2.49c-2.36-1.93-4.17-4.57-5.3-7.39s-1.97-6.47.21-8.89c1.96-2.18,5.41-2.28,8.12-2.31,3.94-.04,7.88,0,11.82,0,1.63,0,3.46.19,4.81-.91,1.23-1,1.5-2.53,1.68-4.01,1-7.95,1.74-15.95,2.89-23.88.51-3.51,1.25-7.09,3.05-10.18,1.67-2.86,4.21-5.04,7.06-6.68,6.27-3.61,13.88-4.99,21.05-4.64,3.64.18,7.21.86,10.68,1.96,1.84.59,2.63-2.31.8-2.89-7.52-2.39-15.62-2.75-23.32-1.04-6.79,1.51-13.79,4.62-17.97,10.41-4.49,6.24-4.59,14.8-5.47,22.14-.5,4.21-1.01,8.41-1.51,12.62-.11.92-.16,1.88-.36,2.79-.18.85-.43,1.23-1.34,1.3-2.03.16-4.12,0-6.16,0-3.77,0-7.63-.26-11.37.24-3.03.41-6.08,1.63-7.67,4.42-3.26,5.74.83,13.77,4.97,17.95,2.17,2.19,4.96,3.91,8.05,4.39s7-1.13,8.74,2.19c1.46,2.78,1.16,6.38,1.29,9.4.18,4.33.43,8.65.75,12.97.61,8.4,1.29,16.88,2.63,25.2.55,3.4,1.9,6.41,4.8,8.41,2.59,1.78,5.93,2.47,9.03,2.49,3.43.03,6.53-1.27,8-4.53s1.51-7.02,1.93-10.47c.53-4.37,1.06-8.74,1.59-13.11s1.12-8.51,1.32-12.8c.1-2.12.09-4.25-.08-6.37-.16-1.98-.46-4-.23-5.99.37-3.24,2.63-5.51,5.49-6.84s5.91-1.49,9.01-1.69c3.31-.21,6.79-.82,8.99-3.56,2.03-2.52,2.49-5.96,2.17-9.1-.36-3.42-1.54-6.63-4.59-8.5-2.86-1.75-6.34-1.96-9.6-2.14s-6.99-.48-9.22-3.24c-1.86-2.32-2.12-5.55-1.97-8.4.08-1.52.32-3.02.64-4.51.34-1.57.71-3.29,1.69-4.61,1.07-1.44,2.85-1.89,4.52-2.24,1.94-.41,3.89-.71,5.83-1.11,3.53-.72,7.12-1.73,10.14-3.77,5.45-3.69,8.39-10.32,4.96-16.43S71.09-.06,64.24.5c-4.05.33-7.98,1.4-11.88,2.5-1.85.52-1.07,3.42.8,2.89h0Z"/>
  <path class="cls-1" d="M69.2,25.05c-4.62,1.36-9.45,2.45-13.88,4.38-4.12,1.79-7.2,4.73-8.42,9.14s-1.82,9.91.39,14.14c1.92,3.67,5.73,6.23,9.82,6.7,2.78.32,5.49-.51,8.15-1.19,3.08-.79,6.09-.97,9.2-.2,1.87.46,2.67-2.43.8-2.89-2.28-.56-4.64-.78-6.99-.52s-4.47.96-6.7,1.47c-3.92.9-7.68.1-10.42-3-2.88-3.27-2.53-7.84-1.78-11.84.38-2.02.96-4.08,2.31-5.69,1.2-1.44,2.8-2.43,4.49-3.22,1.86-.87,3.85-1.45,5.82-2.03,2.67-.79,5.34-1.57,8.02-2.35,1.85-.54,1.06-3.44-.8-2.89h0Z"/>
</svg>