<?xml version="1.0" encoding="UTF-8"?>
<svg id="Layer_1" data-name="Layer 1" xmlns="http://www.w3.org/2000/svg" viewBox="0 0 30 58.24">
  <defs>
    <style>
      .cls-1 {
        fill: #d9d7d9;
      }

      .cls-1, .cls-2, .cls-3, .cls-4, .cls-5, .cls-6, .cls-7, .cls-8, .cls-9, .cls-10, .cls-11, .cls-12, .cls-13, .cls-14, .cls-15, .cls-16, .cls-17, .cls-18, .cls-19, .cls-20, .cls-21, .cls-22, .cls-23, .cls-24, .cls-25, .cls-26, .cls-27, .cls-28, .cls-29, .cls-30, .cls-31, .cls-32, .cls-33, .cls-34, .cls-35, .cls-36, .cls-37, .cls-38, .cls-39, .cls-40, .cls-41, .cls-42, .cls-43, .cls-44, .cls-45, .cls-46, .cls-47, .cls-48, .cls-49, .cls-50, .cls-51, .cls-52, .cls-53, .cls-54, .cls-55, .cls-56, .cls-57, .cls-58, .cls-59, .cls-60, .cls-61, .cls-62, .cls-63, .cls-64, .cls-65, .cls-66, .cls-67, .cls-68 {
        stroke-width: 0px;
      }

      .cls-2 {
        fill: #383638;
      }

      .cls-3 {
        fill: #dedbde;
      }

      .cls-4 {
        fill: #272627;
      }

      .cls-5 {
        fill: #444144;
      }

      .cls-6 {
        fill: #fdfdfd;
      }

      .cls-7 {
        fill: #ece9eb;
      }

      .cls-8 {
        fill: #cbc7ca;
      }

      .cls-9 {
        fill: #5c595b;
      }

      .cls-10 {
        fill: #302e30;
      }

      .cls-11 {
        fill: #222022;
      }

      .cls-12 {
        fill: #7f7c7d;
      }

      .cls-13 {
        fill: #d5d1d4;
      }

      .cls-14 {
        fill: #6e6a6e;
      }

      .cls-15 {
        fill: #636164;
      }

      .cls-16 {
        fill: #3a373a;
      }

      .cls-17 {
        fill: #181619;
      }

      .cls-18 {
        fill: #f8f5f7;
      }

      .cls-19 {
        fill: #494648;
      }

      .cls-20 {
        fill: #605c5e;
      }

      .cls-21 {
        fill: #8a8688;
      }

      .cls-22 {
        fill: #b4b1b3;
      }

      .cls-23 {
        fill: #656163;
      }

      .cls-24 {
        fill: #676567;
      }

      .cls-25 {
        fill: #989396;
      }

      .cls-26 {
        fill: #b3b1b3;
      }

      .cls-27 {
        fill: #5e5b5d;
      }

      .cls-28 {
        fill: #3d393a;
      }

      .cls-29 {
        fill: #eeecee;
      }

      .cls-30 {
        fill: #b8b5b7;
      }

      .cls-31 {
        fill: #948f92;
      }

      .cls-32 {
        fill: #f2f0f2;
      }

      .cls-33 {
        fill: #191718;
      }

      .cls-34 {
        fill: #e7e5e7;
      }

      .cls-35 {
        fill: #e3e1e3;
      }

      .cls-36 {
        fill: #8b878a;
      }

      .cls-37 {
        fill: #f0ecef;
      }

      .cls-38 {
        fill: #393639;
      }

      .cls-39 {
        fill: #5f5d5f;
      }

      .cls-40 {
        fill: #5f5b5e;
      }

      .cls-41 {
        fill: #dbd8db;
      }

      .cls-42 {
        fill: #aaa8ab;
      }

      .cls-43 {
        fill: #ede9eb;
      }

      .cls-44 {
        fill: #e8e5e7;
      }

      .cls-45 {
        fill: #999697;
      }

      .cls-46 {
        fill: #272426;
      }

      .cls-47 {
        fill: #534f51;
      }

      .cls-48 {
        fill: #242123;
      }

      .cls-49 {
        fill: #555154;
      }

      .cls-50 {
        fill: #f7f6f8;
      }

      .cls-51 {
        fill: #1a1618;
      }

      .cls-52 {
        fill: #ece8eb;
      }

      .cls-53 {
        fill: #6f6d70;
      }

      .cls-54 {
        fill: #646164;
      }

      .cls-55 {
        fill: #353133;
      }

      .cls-56 {
        fill: #d6d1d4;
      }

      .cls-57 {
        fill: #e1dee1;
      }

      .cls-58 {
        fill: #2e2a2d;
      }

      .cls-59 {
        fill: #1d1a1c;
      }

      .cls-60 {
        fill: #f5f4f5;
      }

      .cls-61 {
        fill: #eeeced;
      }

      .cls-62 {
        fill: #656264;
      }

      .cls-63 {
        fill: #d4d2d5;
      }

      .cls-64 {
        fill: #2f2a2d;
      }

      .cls-65 {
        fill: #625f61;
      }

      .cls-66 {
        fill: #2c282a;
      }

      .cls-67 {
        fill: #8f8c8f;
      }

      .cls-68 {
        fill: #272527;
      }
    </style>
  </defs>
  <path class="cls-39" d="M19.89,55.34c-.49,2.45-1.58,3.22-4.01,2.79-.7-.12-1.42-.16-2.07-.51.02-.04.05-.08.07-.12.54-.51,1.23-.5,1.89-.48-.4-.11-.91.27-1.2-.33.09-.14.23-.24.39-.25,1.42-.08,1.91-1.07,2.14-2.24.39-1.91.59-3.86.59-5.8,0-3.61.09-7.22.4-10.82.12-1.41.34-2.81.86-4.14.23-.61.48-1.25,1.15-1.54.45.3.27.7.16,1.08-.28.19-.38.48-.46.79-.61,2.38-.95,4.8-.97,7.25-.02,4.04-.08,8.08-.57,12.1-.1.8-.25,1.6-.51,2.37.77-2.42,1.09-4.91,1.28-7.43.03-.39-.07-.84.39-1.08.38.17.2-.12.2-.25-.03-1.78-.02-3.57,0-5.35,0-.35-.2-.92.52-.91.19.28.2.59.2.91-.01,3.14.08,6.27-.1,9.41-.01.23-.09.45-.09.68.02.13.2-.05.09.01.3-4.78.34-9.57.07-14.36-.03-.12-.18.07-.08,0,.03-.02.05,0,.06.07.11.71.16,1.43.12,2.15-.02.29.09.66-.37.74-.35-.36-.24-.82-.26-1.25-.04-.78.09-1.57-.13-2.33-.14-1.12-.06-2.21.42-3.26.43.02.27.38.35.55,0-.4-.02-.86,0-1.31.01-.37.05-.76.58-.73-.33,1.87-.19,3.76-.07,5.63.34,5.53.59,11.05-.64,16.51-.05.24-.15.47-.22.71-.45-.37-.07-1.03-.5-1.4-.22-.77-.07-1.53-.01-2.3-.02,1.29-.25,2.54-.6,3.77-.05.18-.1.38.2.39.26.05.5.13.72.27Z"/>
  <path class="cls-9" d="M13.62,3.42c.44-.83,1.27-1.18,2.04-1.56C18.63.42,21.78-.14,25.07.03c2.81.15,4.42,1.66,4.82,4.47.19,1.32.14,2.62-.38,3.87-.17-.12-.29-.3-.46-.41-.19.37-.02.75-.06,1.12.04.1-.09.19-.02.29,0-.06.02-.11.04-.17,0-.08.02-.16.02-.24.1-.25,0-.65.47-.59-.28,1.43-.12,2.92-.58,4.33q-.15-.45-.61-.38c-.25-.28-.09-.74-.41-.99-.15-.4.46-.58.28-.99-.04-.24.04-.47.09-.66.08-.14-.18,0-.06-.02-.18.52-.72.95-.37,1.59-.24.3-.36.8-.92.59-.17-.79-.06-1.59.26-2.28.38-.82.57-1.63.55-2.51-.01-.4.09-.8.26-1.18.32-.44.5-.13.68.13.14.2.05.6.47.57.25-.79.01-1.59.05-2.38-.06.56.11,1.15-.21,1.68-.58.02-.51-.52-.71-.83-.03-.31.05-.61.09-.92q.17-1.25-1.16-1.47c.38.43,1.01.71,1.06,1.42-.16.31-.5.27-.76.37-.77-.55-1.69-.92-2.19-1.79.09-.13.24-.19.35-.36-.27-.21-.61-.08-.88-.18-.21-.07-.55-.08-.33-.47,1.13-.41,2.23.04,3.47.15-.9-.76-1.86-1.05-2.9-1.11-3.41-.19-6.62.57-9.66,2.08-.45.07-.43.42-.47.75-.45.22-.88.28-1.28-.09Z"/>
  <path class="cls-27" d="M8.16,18.15c.2-.43.22-.88.25-1.36.1-2.18.36-4.34,1.01-6.44.1-.32.15-.67.43-.91.34.26.42.67.56,1.04-.13,1.65-.66,3.22-.86,4.86-.02.17-.13.34-.04.49.23-1.62.5-3.24.94-4.83.23-.81.38-1.64.44-2.48.13-.35.25-.73.77-.5.26.47.2.98.08,1.46-.6,2.36-1.06,4.76-1.64,7.13-.14.55-.2,1.2-.91,1.4-.4-.57-.2-1.21-.25-1.83.02-.12-.16.02-.04-.01.04-.01.06.02.04.08-.13.39-.09.79-.16,1.18-.06.36-.08.76-.62.71Z"/>
  <path class="cls-20" d="M8.17,56.86c-.99-.09-1.37-.76-1.52-1.63-.23-1.28-.15-2.57-.2-3.85.04-.02.08-.04.12-.06.32.12.3.41.32.67.01.13-.03-.03,0,.09.01.05.06.03.07-.07.05-.58.01-1.15.03-1.73,0-.19.04-.36.12-.53.44-.23.16-.82.54-1.08.41.1.36.47.4.76.15.89.33,1.78.59,2.65.5,1.63,1.39,2.92,3.03,3.59.36.15.79.27.89.74-.4.41-.85.74-1.46.73-.09-.03-.16-.08-.24-.14-.69-.6-1.6-.78-2.32-1.32-.11.21,0,.41-.1.58-.12.16-.26.26-.47.16-.17-.28-.37-.56-.3-.92.09-.39.25-.72.68-.83.44,0,.7.35,1.01.53-.87-.97-1.43-2.11-1.61-3.29,0,.17.07.46.17.76.1.3.14.61-.04.9-.23.26-.41-.24-.64-.04-.11,1.06,0,2.05.73,2.89.13.11.33.19.19.43Z"/>
  <path class="cls-51" d="M6.64,45.47c-.06-3.88-.13-7.75-.19-11.63-.35-.4-.07-.89-.17-1.32-.06-.72-.06-1.46-.37-2.13-.13-.4-.11-.83.35-.89.53-.08.48.53.7.83.04.09.07.18.09.27.11.6-.03,1.21.14,1.81.2.6-.08,1.24.14,1.84.03.08.05.17.06.26.04.56-.5,1.06-.18,1.66.05.24.04.47,0,.71-.15.72-.16,1.44,0,2.17.03.1.05.2.07.31.07.93-.02,1.86.1,2.78.22,1.3-.17,2.58-.11,3.88.01.24-.11.53-.42.51-.36-.03-.27-.34-.27-.58,0-.15,0-.31.07-.45Z"/>
  <path class="cls-68" d="M28.35,12.3c.62-.48.54.05.59.4-.05.47-.36.54-.77.63-2.26.49-4.49,1.06-6.22,2.75-.05.06-.12.08-.2.07-.18-.09-.37-.04-.55,0-.2-.01-.28-.14-.29-.33.01-.08.04-.16.09-.23.23-.23.55-.35.78-.58.51-.28,1.01-.59,1.53-.85.33-.13.45-.48.71-.69.7-.39,1.46-.64,2.21-.92.35.05.5-.12.52-.45.06-.12.14-.22.3-.18.25-.25.51-.5.76-.75-.22-.55-.12-.87.55-.77.66.62-.54.52-.37.95.33.44.27.81-.21,1.1.24.1.37-.17.58-.16Z"/>
  <path class="cls-16" d="M28.58,21.35c.12.38.24.75.36,1.13.23.51-.22.94-.14,1.43-.33,1.1.01,2.29-.4,3.38-.3.68-.18,1.33.13,1.97-.36.07-.67.34-1.06.25-.35.05-.71.17-1.03-.09-.02-.13-.02-.27.08-.34.98-.81,1.09-1.93,1.09-3.08.22-.52-.28-.94-.23-1.43,0-.09,0-.19.02-.28q.24-1.31-.91-2.06c-.14-.09-.24-.2-.26-.37.72-.45,1.49-.64,2.34-.5Z"/>
  <path class="cls-48" d="M1.39,29.66C.3,29.38,0,28.69,0,27.57c0-1.95-.03-3.89.23-5.83.02-.02.04-.04.06-.07.19-.22-.18-.85.42-.72.46.1.41.55.28.94-.07.18-.15.36-.21.54-.3.8.08,1.51.28,2.24.05.81.02,1.63.02,2.44.03.44-.06.89.1,1.31.14.23.31.42.56.53.46.15.93.02,1.38.1.24.04.53.08.57.38.04.33-.24.39-.49.44-.15.01-.3,0-.45-.03-.43-.25-.95.1-1.37-.19Z"/>
  <path class="cls-40" d="M28.58,21.35c-.77.2-1.53.4-2.3.6-.7.3-1.34.19-1.92-.29.07-.3.34-.34.57-.44.67-.2,1.32.15,2,.08-.77-.27-1.56-.36-2.34-.53-.78-.18-1.57-.29-2.23-.8-.27-.21-.56-.39-.51-.8.12-.46.6-.25.86-.44,1.69.23,3.29.81,4.83,1.51.49.22.93.53,1.04,1.12Z"/>
  <path class="cls-33" d="M8.16,18.15c.5-.19.42-.63.43-1.02.01-.4-.07-.82.47-1.07.03.66.34,1.27.07,1.92,0,1-.24,1.36-1.13,1.6-.53.14-1.08.23-1.61.38-.48-.04-.97-.26-1.44.08-.89.27-1.71.75-2.63.96-.36-.05-.76-.06-.5-.61.15-.2.36-.31.6-.37.54-.15,1.09-.29,1.59-.57,1.42-.33,2.87-.54,4.14-1.3Z"/>
  <path class="cls-59" d="M20.22,32.91l.03-.97c-.2-1.52.4-2.34,1.89-2.5,1.11-.12,2.23-.24,3.34-.37.4.04.82.03.8.61-.43.13-.86.27-1.29.4-.58.27-1.23.18-1.83.31-.88.18-1.63.61-2.16,1.37h0c-.47.19-.33.62-.36.97-.06.7.08,1.42-.15,2.26-.46-.62-.07-1.24-.28-1.76-.09-.1-.09-.21,0-.31Z"/>
  <path class="cls-46" d="M13.62,3.42c.45,0,.94.19,1.34-.18.23-.48.8-.46,1.13-.79.94-.53,1.95-.75,3.02-.77.53.06.77.3.54.84-.23.41-.67.41-1.06.5-1.4.31-2.78.68-4,1.49-.41.12-.8.53-1.25.09-.13-.11-.28-.21-.41-.32-.1-.1-.15-.21-.09-.35.22-.22.36-.58.77-.51Z"/>
  <path class="cls-5" d="M22.7,18.73c-.26.13-.53.26-.79.4-.16.03-.34-.16-.39-.11-.11.13.08.24.15.36.07.13.15.25.14.41-.29.44-.64.41-1.02.13-.65-1.07-.77-2.21-.45-3.4.09-.33.17-.75.64-.82.06.13.11.25.17.38.03.21.18.22.58.01.07,0,.14,0,.21,0-.14.57-.27,1.14-.17,1.73.09.52.29.95.93.92Z"/>
  <path class="cls-11" d="M11.58,7.98c-.22.14-.47.26-.59.53-.29.62-.07,1.45-.75,1.92-.3-.25-.36-.61-.39-.97.67-1.36,1.01-2.87,1.87-4.14.91.26.42.96.46,1.49-.09.45-.21.89-.6,1.18Z"/>
  <path class="cls-58" d="M6.64,45.47c.1.28-.11.63.44,1.09-.22-1.65.28-3.05,0-4.48.67-.08.52.46.61.82-.3,1.59-.1,3.17.09,4.75.05.37.14.75-.16,1.06,0,.27,0,.54-.01.81-.01.32-.2.21-.36.13-.27-.14-.48-.37-.51-.64-.1-.98-.37-1.94-.26-2.93.02-.21,0-.44.17-.6Z"/>
  <path class="cls-12" d="M28.53,29.26c-.93-.46-.59-1.18-.38-1.87.26.17.22.48.36.94.19-1.64.28-3.06.06-4.48-.28-.56.45-.85.37-1.36.69,2.01.48,4.05.23,6.09-.04.31-.2.67-.64.69Z"/>
  <path class="cls-24" d="M1.39,29.66c.44-.03.87-.48,1.32,0-.34.23-.13.34.07.51,1.13.98,2.53,1.59,3.69,2.52.27.39-.24.77-.03,1.16-.72-.88-1.61-1.53-2.59-2.1-.93-.55-1.88-1.11-2.47-2.08Z"/>
  <path class="cls-14" d="M6.47,46.08c.52,1.13.18,2.45.77,3.57,0,.2-.02.4-.03.61-.09.08-.2.1-.32.11-.4.22-.06.71-.36.97-.03.02-.07.03-.1.04-.43-1.77-.38-3.54.03-5.3Z"/>
  <path class="cls-47" d="M4.01,19.45c-.39.47-.92.68-1.51.77-.39-.2-.69.1-.89.14.02,0,.19-.11.34.08-.28.56.29.25.41.4-.4.54-.82,1.04-1.56,1.06.01-.28.27-.69-.12-.79-.41-.1-.11.54-.45.64-.11-.96.34-1.54,1.21-1.86.83-.3,1.68-.49,2.57-.42Z"/>
  <path class="cls-19" d="M11.98,6.89c-.18-.51.45-1.16-.26-1.58.24-.57.66-.98,1.13-1.36l.26.28c.05.33-.3.43-.39.63.24-.12.31-.57.74-.45.32.66.66-.22.98.02-.64,1.01-1.36,1.93-2.47,2.48Z"/>
  <path class="cls-15" d="M26.29,29.68c-.14-.36-.44-.41-.78-.4.84-1.42,1.18-3.03,1.77-4.55.05-.12.16-.18.29-.2-.17.5.66.82.23,1.36-.45,1.12-.61,2.36-1.34,3.37.26.38.68.1,1,.24-.37.19-.77.19-1.17.17Z"/>
  <path class="cls-54" d="M21.01,31.75c.6-1.45,1.77-1.74,3.17-1.6.27.03.54-.05.82-.08-1.33.56-2.66,1.12-3.99,1.68Z"/>
  <path class="cls-2" d="M7.96,56.44c.13-.05.26-.11.38-.16.89.15,1.78.29,2.65.54,0,.06.01.12.04.18-.16.27-.46.22-.69.31-.46-.04-.94.12-1.39-.1-.26-.11-.52-.23-.78-.34-.07-.14-.13-.28-.2-.43h0Z"/>
  <path class="cls-4" d="M19.89,55.34c-.28.14-.49.08-.61-.22-.2-.69.03-1.29.41-1.86.26-.12.41-.07.4.25,0,.37,0,.73,0,1.1-.06.24-.13.49-.19.73Z"/>
  <path class="cls-39" d="M8.95,57.2c.5,0,1,0,1.5,0,.76-.06,1.5-.32,2.28-.26.46.03.95.04,1.16.58-.03.03-.05.07-.08.1-1.04-.31-2.09-.23-3.15-.19-.57.02-1.19.16-1.71-.23Z"/>
  <path class="cls-6" d="M27.58,24.53c-.27.8-.6,1.58-.78,2.4-.21.92-.61,1.7-1.28,2.34-.99.32-2.03.25-3.04.37-1.6.19-1.64.22-2.07,1.76-.05.18-.1.36-.16.54-1.08.88-1.32,2.16-1.56,3.42-.77,4.06-.61,8.18-.71,12.28-.05,2.16-.2,4.32-.6,6.45-.08.43-.22.85-.37,1.26-.3.8-.8,1.33-1.74,1.28-.24-.01-.5.01-.7.2-.78.43-1.44.19-2.03-.38-.29-.18-.56-.4-.87-.52-2.08-.78-2.97-2.47-3.45-4.48-.22-.91-.4-1.82-.6-2.74-.19-1.93-.58-3.86-.18-5.81.02-1.41.29-2.79.45-4.18.17-1.49-.24-2.91-.67-4.32h0c-.27-.68.15-1.42-.22-2.08-.15-.63.08-1.28-.13-1.91h0c-.71-1.78-1.57-2.33-3.55-2.39-.86-.03-1.85.34-2.5-.62.07-.94-.2-1.87.01-2.81.08-.54.31-1.01.73-1.37,1.46-1.28,2.89-2.58,4.68-3.39.3-.24.67-.34,1.03-.36,1-.04,1.63-.5,1.85-1.49.83-.81.88-1.92,1.06-2.94.35-1.91.93-3.77,1.3-5.67.09-.46.17-.92.09-1.39.13-.36.27-.73.4-1.09l2.47-2.48c1.2-1.02,2.71-1.28,4.17-1.66.3-.08.59-.16.89-.24.08-.07.16-.13.25-.18.8-.19,1.63-.22,2.43-.4,1.14-.13,2.26-.16,3.13.78.84.46,1.56,1.08,2.29,1.69.63.24.73.72.56,1.31.15,2.17-1.02,4.1-1.14,6.22-.06.06-.12.13-.18.19-.15.24-.25.52-.59.54-.66.52-1.5.63-2.23.99-.16.1-.33.19-.51.22-1.13.22-1.95.86-2.53,1.83,0,0,0,0,0,0-.92,1.39-.57,2.79-.05,4.2.51.39,1,.83,1.66.96.57.29,1.3.18,1.77.72.62.23,1.26.33,1.91.38q1.77.6,1.3,2.58Z"/>
  <path class="cls-18" d="M20.22,32.91c0,.1,0,.21,0,.31-.23,1.07-.37,2.14-.36,3.23.03,1.62.03,3.24-.11,4.86-.18,1.68-.03,3.36-.08,5.04-.01.23,0,.47-.21.64-.34,2.17-.35,4.38-.89,6.52-.17.67-.33,1.34-.5,2.01-.11.43-.32.74-.83.73,1.63-5.25,1.06-10.67,1.35-16.02.12-2.17.34-4.32.94-6.41.11-.37.16-.82.68-.9Z"/>
  <path class="cls-44" d="M20.07,40.06c.28-1.05.09-2.13.31-3.18.44,4.99.73,9.98-.33,14.95v-11.42c-.11-.13-.09-.24.02-.36Z"/>
  <path class="cls-64" d="M20.07,40.06c0,.12-.01.24-.02.36-.3.28-.18.64-.18.97,0,1.9.02,3.8.02,5.71,0,.32.05.66-.16,1.01-.34-.38-.09-.79-.26-1.11,0-.18.02-.35.02-.53.22-1.3.04-2.61.1-3.92.02-.4-.07-.81.07-1.21-.04-1.63-.05-3.26.21-4.88.44.77.11,1.59.18,2.38.04.4.02.81.03,1.22Z"/>
  <path class="cls-17" d="M12.54,56.44c.66.2,1.32.44,2.03.38.5.17,1.09-.25,1.76.37-.97-.04-1.71.13-2.45.33-1.1-.58-2.29-.22-3.44-.31.13-.24.38-.16.59-.22.59.05.94-.54,1.51-.55Z"/>
  <path class="cls-34" d="M19.69,53.26c-.14.62-.27,1.24-.41,1.86-.24.12-.33.48-.75.41.44-1.74.79-3.48,1.16-5.24v2.97Z"/>
  <path class="cls-35" d="M15.36,57.44c1.74.52,2.68-.8,3.85-1.73-.19,1.93-1.76,2.64-3.85,1.73Z"/>
  <path class="cls-50" d="M19.08,1.91c-1.05,0-2.02.35-2.96.78-.33-.08-.69.68-.99-.05C18.65.78,22.36,0,26.32.66c.91.15,1.67.63,2.25,1.57-1.46-.3-2.79-.6-4.17-.51-.14.1-.3.13-.45.09-1.21-.34-2.4-.39-3.59.1-.42.18-.86-.24-1.29,0Z"/>
  <path class="cls-38" d="M19.08,1.91c1.76-.4,3.52-1.03,5.32-.19.21.27.51.15.77.2.34.05.88-.16.91.35.03.34-.49.33-.78.44-.99-.45-2.02-.69-3.11-.55-.83.22-1.75-.26-2.52.35-.06,0-.12,0-.18,0,.09-.36.1-.67-.42-.6Z"/>
  <path class="cls-41" d="M28.16,4.2c-.17-.86-.97-1.18-1.5-1.73,1.91-.3,2.44.44,1.74,2.43-.26-.17-.34-.41-.24-.7Z"/>
  <path class="cls-52" d="M28.92,5.9c.12-.76-.05-1.55.25-2.45.46,1.18.45,2.24.3,3.28-.1.66-.22-.27-.37-.03-.47-.17-.37-.47-.18-.8Z"/>
  <path class="cls-10" d="M28.92,5.9c.13.25-.08.58.18.8-.32.6-.46.19-.53-.12-.07-.33,0-.71-.41-.86-.12-.46-.25-.92-.56-1.31.04-.46.29-.36.56-.2.17.2.24.44.24.7.17.33.35.66.52,1Z"/>
  <path class="cls-26" d="M28.35,12.3c-.11.23-.25.43-.52.49-.16.04-.32.09-.41-.08-.11-.19.04-.51.07-.51.81.08.31-.58.49-.85.83.04.21.64.37.94Z"/>
  <path class="cls-36" d="M28.34,10.4c-.45.07-.57.37-.55.77-.76-.36-.06-.79-.07-1.19.48.02.35-.5.62-.74v1.16Z"/>
  <path class="cls-31" d="M28.94,9.14c-.43-.45-.18-1.01-.16-1.5,0-.17.19.12.31.15.31.44.1.88,0,1.33v-.02c-.03.09-.08.11-.16.05Z"/>
  <path class="cls-1" d="M15.13,2.65c.31.43.67-.14.99.05-.38.18-.77.37-1.15.55-.15-.08-.48.11-.45-.09.03-.26.36-.39.62-.5Z"/>
  <path class="cls-66" d="M28.94,9.14c.05-.04.11-.06.17-.05,0,.03,0,.06,0,.09.02.31.05.63-.36.74-.13.03-.16-.04-.19-.12-.12-.36.21-.47.38-.66Z"/>
  <path class="cls-66" d="M29.11,9.11c0-.44,0-.88,0-1.33.46-.03.34.35.42.59,0,0,0,0,0,0-.35.13-.15.57-.41.74Z"/>
  <path class="cls-13" d="M10.24,10.42c.28-.63.2-1.4.75-1.92.33.56.02,1.11-.08,1.63-.36,1.77-.8,3.53-1.21,5.29-.06.23-.03.51-.34.72.05-1.98.62-3.83.88-5.72Z"/>
  <path class="cls-7" d="M7.78,53.63c-.05-.68-.1-1.36-.15-2.04.58,1.49,1.16,2.97,2.62,4.11-.96,0-1.34-.63-1.91-.89-.55-.22-.76-.6-.56-1.18Z"/>
  <path class="cls-3" d="M11,56.81c-.92,0-1.87.17-2.65-.54.06-.34-.3-.62-.09-1.09.77.84,1.92.92,2.74,1.62Z"/>
  <path class="cls-56" d="M7.97,56.44c-.74-.44-1.34-2.28-.99-3.05,0-.02.16.03.25.05.77.53.59,1.32.58,2.07.05.31.1.62.15.93,0,0,0,0,0,0Z"/>
  <path class="cls-55" d="M7.81,55.51c-.35-.64-.08-1.46-.58-2.07.04-.16-.05-.46.13-.47.42-.02.13.52.42.66l.56,1.18c-.32.12-.35.47-.53.7Z"/>
  <path class="cls-46" d="M6.54,51.34c-.03-.37-.12-.76-.06-1.11.07-.45.25-.15.37,0,.35.68.13,1.41.16,2.11-.01.15,0,.33-.18.37-.16.03-.16-.11-.18-.23-.06-.38.13-.79-.12-1.15Z"/>
  <path class="cls-25" d="M7.02,52.35c-.35-.68-.13-1.41-.16-2.11.12,0,.24.01.36.02-.08.7.26,1.43-.19,2.09Z"/>
  <path class="cls-60" d="M6.48,32.69c-.07.05-.19.17-.21.16-1.32-1.12-3.01-1.73-4.19-3.03.2-.25.45-.04.63-.16.11.02.22.04.33.05,1.01.23,2.08.09,3.05.55.53.74.26,1.62.4,2.43Z"/>
  <path class="cls-65" d="M6.08,30.26c-1.08.17-2.08-.08-3.05-.55.18-.04.35-.08.65-.15-.78-.54-1.67.11-2.31-.44,1.04-.53,2.13-.2,3.2-.21.24,0,.48.1.73.09-1.38-.72-2.84-.65-4.33-.45-.41-.33.05-.79-.17-1.14.31.34.73.3,1.13.31.71.03,1.43.03,2.14.1,1.68.16,2.44.89,2.78,2.6-.09-.12-.17-.26-.28-.36-.13-.13.02-.52-.34-.41-.32.1-.27.37-.16.61Z"/>
  <path class="cls-23" d="M7.22,34.4c.77.99.96,2.15.95,3.34,0,1.75-.26,3.47-.73,5.16-.13-.27.14-.72-.37-.82-.03-1-.17-1.99-.02-2.99.71.49.25,1.11.26,1.86.21-1.67,0-3.17,0-4.66,0-.13-.12-.2-.26-.21-.46-.61.19-1.11.17-1.68Z"/>
  <path class="cls-43" d="M7.04,36.08c.05-.14.11-.29.26-.7.63,2.07.34,3.89-.03,5.72-.08-.67-.15-1.34-.23-2.01,0,0,0,0,0,0-.17-.75-.15-1.51,0-2.26,0-.25,0-.5,0-.76Z"/>
  <path class="cls-23" d="M7.04,36.84c.11.75.12,1.51,0,2.26-.27-.75-.22-1.51,0-2.26Z"/>
  <path class="cls-23" d="M7.09,32.22c.04.72.08,1.45.12,2.17-.59-.55-.11-1.21-.2-1.81-.07-.14-.04-.26.08-.36Z"/>
  <path class="cls-65" d="M7.09,32.22c-.03.12-.05.24-.08.36-.22-.71-.15-1.44-.15-2.17.35.57.24,1.2.23,1.81Z"/>
  <path class="cls-5" d="M20.99,15.7c.54-1.4,1.51-2.07,3.04-2.06-.19.25-.2.66-.63.7-.73-.07-1.17.41-1.64.84-.05.47-.53.32-.77.52Z"/>
  <path class="cls-30" d="M21.75,15.18c.44-.89,1.07-1.21,1.64-.84-.56.26-1.02.71-1.64.84Z"/>
  <path class="cls-67" d="M21.73,16.08c-.38.25-.31.87-.84,1.02-.17-.43.18-.7.26-1.04.2-.16.4-.65.58.01Z"/>
  <path class="cls-53" d="M26.25,12.65c.12-.26.37-.39.59-.54-.02.24.29.49.08.69-.23.22-.45-.06-.67-.15Z"/>
  <path class="cls-61" d="M28.57,23.85c.2.08.29.24.29.44.04,1.29.11,2.57-.08,3.86-.04.3-.09.64-.54.71-.22-.48-.01-.98-.09-1.45.34-1.16.12-2.38.42-3.55Z"/>
  <path class="cls-63" d="M26.47,29.27c.39-1.18.78-2.36,1.17-3.54,0,0,.08-.01.08,0,.03.05.05.11.08.17,0,.46,0,.93-.02,1.39-.01.94-.55,1.54-1.32,1.98Z"/>
  <path class="cls-32" d="M.8,21.89l1.56-1.06c.88-.28,1.65-.87,2.59-1,.11-.06.26-.11.33,0,.18.29-.06.46-.25.6-.73.52-1.47,1.04-2.15,1.64-.56.49-1.2.89-1.66,1.49-.13.17-.33.35-.55.25-.2-.08-.14-.33-.13-.5.02-.34-.09-.68.08-1.01.06-.14.12-.28.18-.41Z"/>
  <path class="cls-29" d="M.98,28.55c.02-.15,0-.38.18-.38,1.4,0,2.82-.16,4.15.47.27.13.56.29.71.78-1.58-.45-3.11-.18-4.64-.3-.13-.19-.26-.38-.39-.57Z"/>
  <path class="cls-62" d="M.62,22.31v1.44c.84-.73,1.55-1.39,2.31-2,.68-.55,1.41-1.04,2.12-1.55.32-.23.17-.3-.09-.37.43-.42.86-.16,1.29,0-1.07,1-2.4,1.64-3.5,2.61-.73.65-1.42,1.3-1.92,2.15-.31-.74-.65-1.48-.21-2.29Z"/>
  <path class="cls-37" d="M24.61,20.6c1.03.09,2.06.17,3.06.9-1.03.27-1.85-.14-2.69-.14-.52.02-1.08.12-1.21-.62.24-.33.54-.22.84-.13Z"/>
  <path class="cls-57" d="M25.7,20.27c-1.18,0-2.26-.29-3.2-1.05,1.2.03,2.32.37,3.4.86.04.18,0,.26-.2.19Z"/>
  <path class="cls-8" d="M24.61,20.6c-.28.07-.63-.09-.81.26-.58.14-1.01-.23-1.49-.45-.24-.19-.44-.42-.58-.7-.06-.06-.13-.13-.19-.19-.24-.26-.71-.61-.42-.87.39-.36.52.3.79.48.57,1.09,1.73,1.11,2.7,1.47Z"/>
  <path class="cls-28" d="M22.35,20.21c.48.21.97.43,1.45.64.39.16.78.33,1.18.49-.14.25-.4.16-.61.22-.65-.1-1.28-.26-1.87-.56-.56-.35-.58-.47-.15-.8Z"/>
  <path class="cls-22" d="M25.7,20.27c.07-.06.13-.13.2-.19.66.11,1.25.39,1.77.84-.66-.21-1.31-.43-1.97-.64Z"/>
  <path class="cls-21" d="M1.96,20.44c-.32.1-.65.21-.97.31.39-.51.81-.92,1.51-.52-.18.07-.36.14-.54.21Z"/>
  <path class="cls-45" d="M13.46,4.39c-.39.34-.78.67-1.27,1.09.14-.66.62-.89.92-1.26.15-.01.31-.04.36.17Z"/>
  <path class="cls-39" d="M22.35,20.21c-.31.34,0,.55.15.8-.72-.1-1.26-.45-1.57-1.12.3.07.58.1.8-.18.25.12.47.27.61.51Z"/>
  <path class="cls-49" d="M19.68,2.51c.18-.55.6-.72,1.08-.55.48.17.97.11,1.44.2-.83.21-1.66.39-2.52.35Z"/>
  <path class="cls-39" d="M19.66,41.33c.05,1.71.2,3.43-.17,5.13.06-1.71.11-3.42.17-5.13Z"/>
  <path class="cls-42" d="M4.19,29.63c.43-.15.84-.18,1.27.18-.51.15-.9.1-1.27-.18Z"/>
</svg>