<?xml version="1.0" encoding="UTF-8"?>
<svg id="Layer_1" data-name="Layer 1" xmlns="http://www.w3.org/2000/svg" viewBox="0 0 101.03 123">
  <defs>
    <style>
      .cls-1 {
        fill: #fdfcfc;
      }

      .cls-1, .cls-2 {
        stroke-width: 0px;
      }

      .cls-2 {
        fill: #000;
      }
    </style>
  </defs>
  <path class="cls-1" d="M93.28,3.59c-.01,2.85-.03,5.71-.04,8.56,0,.78.69,1.54,1.5,1.5s1.5-.66,1.5-1.5c.01-2.85.03-5.71.04-8.56,0-.78-.69-1.54-1.5-1.5s-1.5.66-1.5,1.5h0Z"/>
  <path class="cls-1" d="M94.1,3c1.93,0,1.93-3,0-3s-1.93,3,0,3h0Z"/>
  <path class="cls-2" d="M46.99,27.92c6.11,1.45,12.33.76,18.5.22,5.47-.48,11.18-.79,16.44,1.04,10.81,3.75,13.56,16.02,14.09,26.15.34,6.48.47,12.91,1.2,19.37s1.16,12.43.23,18.66c-.79,5.3-2.03,11.58-6.12,15.4s-9.76,4.68-14.84,5.68c-12.54,2.47-25.34,4.21-38.09,5.12-5.78.41-11.98,1.07-17.68-.33-5.13-1.26-9.12-4.61-11.8-9.11-2.94-4.93-4.08-10.66-4.64-16.3-.62-6.16-.9-12.38-1.12-18.57s-.26-12.56.08-18.83.85-12.54,2.32-18.58c.63-2.59,1.77-4.82,3.99-6.39s4.77-2.39,7.33-3.07c6.1-1.63,12.35-1.93,18.62-1.32s12.44,1.82,18.72,2.35,12.93.61,19.39.2c3.07-.2,6.13-.5,9.17-.91.81-.11,1.49-.61,1.5-1.5,0-.73-.7-1.61-1.5-1.5-6.74.9-13.53,1.29-20.33,1.15-6.67-.14-13.25-.92-19.85-1.88s-13.31-1.66-20.03-.76c-5.45.73-11.8,2.03-16.02,5.83-2.12,1.9-3.28,4.48-3.92,7.21-.74,3.14-1.16,6.38-1.55,9.57C.28,53.36-.01,59.96,0,66.55s.34,13.54.76,20.29c.4,6.35.8,12.84,2.88,18.91,1.7,4.93,4.54,9.57,8.72,12.78,4.72,3.62,10.61,4.5,16.42,4.47,13.33-.07,26.73-2.05,39.87-4.15,6.04-.97,12.43-1.77,18.17-4,2.55-.99,4.97-2.31,6.93-4.24s3.34-4.47,4.31-7.08c2.2-5.89,3.04-12.47,2.96-18.73-.08-6.7-1.36-13.32-1.66-20.01-.51-11.46.03-24.57-8.59-33.45s-22.06-6.04-33.34-5.57c-3.25.14-6.48.01-9.65-.74-1.88-.44-2.68,2.45-.8,2.89h0Z"/>
  <path class="cls-2" d="M36.28,59.01c6.49-5.77,16.55-7.19,24.16-2.81,7.16,4.12,11.57,12.69,9.84,20.9-.86,4.08-2.98,7.83-6.05,10.65-3.53,3.25-8.11,4.47-12.69,5.48-1.2.26-2.48.5-3.7.24s-2.34-1.01-3.38-1.71c-2.01-1.35-3.96-2.78-5.79-4.37-3.64-3.18-6.8-7.03-8.27-11.7s-1.07-9.94,2.12-13.9c2.87-3.57,7.26-5.75,11.85-5.59,1.93.06,1.93-2.94,0-3-10-.34-18.52,8.5-17.79,18.46.41,5.51,3.02,10.52,6.65,14.6,1.87,2.1,4.01,3.93,6.25,5.63,2.11,1.61,4.4,3.47,6.95,4.3,2.8.92,5.82-.02,8.56-.7s5.45-1.54,7.88-3c4.18-2.51,7.36-6.46,9.18-10.96,3.7-9.15.53-19.73-7.11-25.85-9.03-7.23-22.24-6.4-30.79,1.21-1.45,1.29.68,3.4,2.12,2.12h0Z"/>
  <path class="cls-2" d="M76.19,40.48c2.48-.09,5.23,0,6.96,1.84,1.35,1.44,1.03,3.49-.23,5.01-.71.86-1.63,1.54-2.74,1.82-1,.25-2.09-.09-2.94-.76-1.7-1.34-2.37-3.99-2.07-6.06.14-.99.67-1.89,1.6-2.22,1.18-.42,2.47-.3,3.77-.19.81.07,1.5-.74,1.5-1.5,0-.87-.69-1.43-1.5-1.5-1.51-.13-3.12-.2-4.57.3-1.68.58-2.88,1.79-3.47,3.46-.55,1.55-.44,3.31-.12,4.9.34,1.67,1.11,3.31,2.31,4.53s2.89,2.04,4.64,2.11,3.46-.76,4.8-1.87c2.5-2.08,3.75-5.69,2.2-8.7-1.9-3.69-6.42-4.31-10.13-4.18-.81.03-1.5.67-1.5,1.5s.69,1.53,1.5,1.5h0Z"/>
  <path class="cls-2" d="M11.49,30.21c8.68-4.59,18.24-6.77,28.03-6.8,5.15-.01,10.29.42,15.41.82s10.23.77,15.34,1.2,10.29,1.12,14.7,3.87c1.64,1.02,3.15-1.57,1.51-2.59-4.06-2.53-8.74-3.49-13.44-4.02-5.21-.58-10.46-.87-15.69-1.27-10.51-.82-21.08-1.85-31.49.37-5.54,1.18-10.89,3.17-15.9,5.82-1.71.9-.19,3.49,1.51,2.59h0Z"/>
  <path class="cls-2" d="M70.63,73.86c.65,4.63.18,9.39-1.31,13.82-.66,1.97-1.54,4.12-3.22,5.44s-3.77,1.63-5.72,2c-4.31.83-9.1,1.22-13.21-.63s-6.64-5.33-9.21-8.63c-1.18-1.52-3.29.62-2.12,2.12,2.34,3,4.76,6.03,8.01,8.11s7.39,2.84,11.32,2.67c3.71-.15,8.09-.66,11.42-2.41s5-5.64,6.02-9.17c1.33-4.6,1.57-9.4.91-14.13-.27-1.9-3.16-1.09-2.89.8h0Z"/>
</svg>