<?xml version="1.0" encoding="UTF-8"?>
<svg id="Layer_1" data-name="Layer 1" xmlns="http://www.w3.org/2000/svg" viewBox="0 0 40 40.69">
  <defs>
    <style>
      .cls-1 {
        fill: #1f1f1f;
      }

      .cls-1, .cls-2, .cls-3, .cls-4, .cls-5, .cls-6, .cls-7, .cls-8, .cls-9, .cls-10, .cls-11, .cls-12, .cls-13, .cls-14, .cls-15, .cls-16, .cls-17, .cls-18, .cls-19, .cls-20, .cls-21, .cls-22, .cls-23, .cls-24, .cls-25, .cls-26, .cls-27, .cls-28, .cls-29, .cls-30, .cls-31, .cls-32, .cls-33, .cls-34, .cls-35, .cls-36, .cls-37, .cls-38, .cls-39, .cls-40, .cls-41, .cls-42, .cls-43, .cls-44, .cls-45, .cls-46, .cls-47, .cls-48, .cls-49, .cls-50, .cls-51, .cls-52, .cls-53, .cls-54, .cls-55, .cls-56, .cls-57, .cls-58, .cls-59, .cls-60, .cls-61, .cls-62, .cls-63, .cls-64, .cls-65, .cls-66, .cls-67, .cls-68, .cls-69, .cls-70, .cls-71, .cls-72, .cls-73, .cls-74, .cls-75, .cls-76, .cls-77, .cls-78, .cls-79, .cls-80, .cls-81, .cls-82, .cls-83, .cls-84, .cls-85, .cls-86, .cls-87, .cls-88, .cls-89, .cls-90, .cls-91, .cls-92, .cls-93, .cls-94, .cls-95, .cls-96, .cls-97, .cls-98, .cls-99, .cls-100, .cls-101, .cls-102, .cls-103, .cls-104, .cls-105, .cls-106, .cls-107, .cls-108, .cls-109, .cls-110, .cls-111, .cls-112, .cls-113, .cls-114 {
        stroke-width: 0px;
      }

      .cls-2 {
        fill: #d6d6d6;
      }

      .cls-3 {
        fill: #b5b5b5;
      }

      .cls-4 {
        fill: #7b7b7b;
      }

      .cls-5 {
        fill: #d2d2d2;
      }

      .cls-6 {
        fill: #c2c2c2;
      }

      .cls-7 {
        fill: #f5f5f5;
      }

      .cls-8 {
        fill: #b3b3b3;
      }

      .cls-9 {
        fill: #a9a9a9;
      }

      .cls-10 {
        fill: #eee;
      }

      .cls-11 {
        fill: #2e2e2e;
      }

      .cls-12 {
        fill: #c4c4c4;
      }

      .cls-13 {
        fill: #545454;
      }

      .cls-14 {
        fill: #030303;
      }

      .cls-15 {
        fill: #747474;
      }

      .cls-16 {
        fill: #595959;
      }

      .cls-17 {
        fill: #ebebeb;
      }

      .cls-18 {
        fill: #818181;
      }

      .cls-19 {
        fill: #fdfdfd;
      }

      .cls-20 {
        fill: #acacac;
      }

      .cls-21 {
        fill: #1e1e1e;
      }

      .cls-22 {
        fill: #565656;
      }

      .cls-23 {
        fill: #e3e3e3;
      }

      .cls-24 {
        fill: #cacaca;
      }

      .cls-25 {
        fill: #4d4d4d;
      }

      .cls-26 {
        fill: #f8f8f8;
      }

      .cls-27 {
        fill: #9a9a9a;
      }

      .cls-28 {
        fill: #8d8d8d;
      }

      .cls-29 {
        fill: #8e8e8e;
      }

      .cls-30 {
        fill: #5b5b5b;
      }

      .cls-31 {
        fill: #afafaf;
      }

      .cls-32 {
        fill: #373737;
      }

      .cls-33 {
        fill: #2c2c2c;
      }

      .cls-34 {
        fill: #cdcdcd;
      }

      .cls-35 {
        fill: #d8d8d8;
      }

      .cls-36 {
        fill: #313131;
      }

      .cls-37 {
        fill: #686868;
      }

      .cls-38 {
        fill: #d7d7d7;
      }

      .cls-39 {
        fill: #8b8b8b;
      }

      .cls-40 {
        fill: #e9e9e9;
      }

      .cls-41 {
        fill: #a2a2a2;
      }

      .cls-42 {
        fill: #3a3a3a;
      }

      .cls-43 {
        fill: #fafafa;
      }

      .cls-44 {
        fill: #cbcbcb;
      }

      .cls-45 {
        fill: #f3f3f3;
      }

      .cls-46 {
        fill: #191919;
      }

      .cls-47 {
        fill: #c3c3c3;
      }

      .cls-48 {
        fill: #959595;
      }

      .cls-49 {
        fill: #f4f4f4;
      }

      .cls-50 {
        fill: #b6b6b6;
      }

      .cls-51 {
        fill: #252525;
      }

      .cls-52 {
        fill: #c7c7c7;
      }

      .cls-53 {
        fill: #020202;
      }

      .cls-54 {
        fill: #9e9e9e;
      }

      .cls-55 {
        fill: #676767;
      }

      .cls-56 {
        fill: #b8b8b8;
      }

      .cls-57 {
        fill: #bebebe;
      }

      .cls-58 {
        fill: #868686;
      }

      .cls-59 {
        fill: #101010;
      }

      .cls-60 {
        fill: #6e6e6e;
      }

      .cls-61 {
        fill: #d3d3d3;
      }

      .cls-62 {
        fill: #d1d1d1;
      }

      .cls-63 {
        fill: #fbfbfb;
      }

      .cls-64 {
        fill: #ababab;
      }

      .cls-65 {
        fill: #171717;
      }

      .cls-66 {
        fill: #f0f0f0;
      }

      .cls-67 {
        fill: #ddd;
      }

      .cls-68 {
        fill: #ededed;
      }

      .cls-69 {
        fill: #040404;
      }

      .cls-70 {
        fill: #a8a8a8;
      }

      .cls-71 {
        fill: #e4e4e4;
      }

      .cls-72 {
        fill: #a7a7a7;
      }

      .cls-73 {
        fill: #d4d4d4;
      }

      .cls-74 {
        fill: #9f9f9f;
      }

      .cls-75 {
        fill: #0d0d0d;
      }

      .cls-76 {
        fill: #4c4c4c;
      }

      .cls-77 {
        fill: #878787;
      }

      .cls-78 {
        fill: #585858;
      }

      .cls-79 {
        fill: #dbdbdb;
      }

      .cls-80 {
        fill: #e8e8e8;
      }

      .cls-81 {
        fill: #0f0f0f;
      }

      .cls-82 {
        fill: #080808;
      }

      .cls-83 {
        fill: #bcbcbc;
      }

      .cls-84 {
        fill: #fefefe;
      }

      .cls-85 {
        fill: #e2e2e2;
      }

      .cls-86 {
        fill: #151515;
      }

      .cls-87 {
        fill: #9b9b9b;
      }

      .cls-88 {
        fill: #f6f6f6;
      }

      .cls-89 {
        fill: #989898;
      }

      .cls-90 {
        fill: #303030;
      }

      .cls-91 {
        fill: #131313;
      }

      .cls-92 {
        fill: #050505;
      }

      .cls-93 {
        fill: #f9f9f9;
      }

      .cls-94 {
        fill: #bdbdbd;
      }

      .cls-95 {
        fill: #212121;
      }

      .cls-96 {
        fill: #949494;
      }

      .cls-97 {
        fill: #c6c6c6;
      }

      .cls-98 {
        fill: #121212;
      }

      .cls-99 {
        fill: #494949;
      }

      .cls-100 {
        fill: #ececec;
      }

      .cls-101 {
        fill: #ccc;
      }

      .cls-102 {
        fill: #a3a3a3;
      }

      .cls-103 {
        fill: #525252;
      }

      .cls-104 {
        fill: #e6e6e6;
      }

      .cls-105 {
        fill: #b1b1b1;
      }

      .cls-106 {
        fill: #efefef;
      }

      .cls-107 {
        fill: #bfbfbf;
      }

      .cls-108 {
        fill: #adadad;
      }

      .cls-109 {
        fill: #f1f1f1;
      }

      .cls-110 {
        fill: #e5e5e5;
      }

      .cls-111 {
        fill: #e7e7e7;
      }

      .cls-112 {
        fill: #f7f7f7;
      }

      .cls-113 {
        fill: #0e0e0e;
      }

      .cls-114 {
        fill: #fcfcfc;
      }
    </style>
  </defs>
  <path class="cls-69" d="M39.53,15.71c-.08,1.03.13,2.03.28,3.04.22,1.44.05,2.88-.07,4.32-.08.96-.03,1.9.05,2.84.25,2.88-.33,5.64-1.26,8.33-.56,1.63-1.8,2.68-3.36,3.33-3.16,1.33-6.38,2.52-9.8,3-1.28.18-2.59.13-3.88,0-.38-.04-.76-.05-1.15-.05-2.17.02-4.35.02-6.52-.13-1.56-.1-2.94-.81-4.32-1.47-.34-.16-.69-.33-1.03-.5-.07-.21.03-.33.23-.39.43.09.85.21,1.27.32.32.12.68.1.91.21-.16-.05-.42-.12-.69-.14-.56-.18-1.14-.3-1.67-.56-.17-.28-.13.2-.26.08-.43-.06-.79-.42-1.27-.26-.07.04-.15.05-.23.05-.81-.43-1.71-.59-2.58-.85-.09-.11-.34-.15-.15-.37.41-.13.76.15,1.21.14-.67-.22-1.28-.44-1.79-.9.01.33.28.46.43.67.05.11.01.23.08.34.05.09.05.21-.12.16-.81-.53-1.35-1.21-1.3-2.24,0-.16-.03-.32-.13-.47-1.26-1.75-1.63-3.8-1.94-5.86-.12-.79-.27-1.59-.24-2.39-.01-.21-.18-.44.11-.6.27.36.22.8.28,1.2.19,1.47.35,2.94.74,4.37.23.82.51,1.62.93,2.45-.33-2.46-.7-4.85-.85-7.25-.09-1.55-.32-3.09-.36-4.64,0-.27,0-.55.01-.82.01-.19-.02-.42.25-.48.18.14.21.35.21.54-.02.89.13,1.76.16,2.41-.24-1.58-.11-3.42-.29-5.24.18-.3-.25-.41-.21-.67-.08-1.18-.22-2.36-.02-3.55.11-.61.2-1.23.42-1.81.81-2.12,1.54-4.26,2.15-6.45.05-.19.12-.39.22-.56.06-.1.13-.19.26-.16.13.03.16.14.18.24.05.27-.09.53-.04.82.19-.17.21-.41.37-.56.3.07.37-.23.55-.35.68-.54,1.23-1.24,1.95-1.73.38-.26.75-.55,1.03-.64-.72.14-1.57.52-2.51.47-.11-.06-.23-.12-.1-.27.38-.24.83-.29,1.25-.39,1.37-.33,2.75-.58,4.11-.94,1.49-.4,3.04-.42,4.56-.58,1.85-.2,3.71-.37,5.57-.37,1.92,0,3.83.1,5.72.43.23.06.48.05.59.09.19.02.1-.09.12-.02-.18.04-.34-.02-.52-.04-.42-.12-.89-.03-1.27-.31.07-.23.23-.14.37-.1,1.77.18,3.4.83,4.97,1.59.52.25,1.03.43,1.6.48,1.48.15,2.83.68,4.08,1.46.12.08.28.15.34.26.37.68,1.06,1.03,1.58,1.55.75.76,1.16,1.66,1.22,2.73.11,1.82-.21,3.61-.31,5.41-.02.3.05.62-.11.91-.16-.13-.16-.33-.23-.5,0-1.04.09-2.08.22-3.11.12-.98.11-1.97.03-2.96-.09-1.07-.65-1.92-1.48-2.59.87,2.01,1.02,4.13,1.04,6.26.02,1.35.19,2.69.1,4.04.06-.32-.19-.69.15-.97.22.19.01.47.15.68Z"/>
  <path class="cls-113" d="M5.62,2.77c.08.04.16.07.24.11-.01.2-.18.22-.32.24-1.52.24-2.45,1.28-3.32,2.41-.5.65-.75,1.42-.97,2.19-.06.2-.02.5-.37.5-.17-.21-.09-.43-.04-.65.05-.27.15-.52.22-.79.39-1.29,1.21-2.27,2.23-3.11.14-.07.25-.17.24-.35,1.41-.45,2.59-1.39,3.99-1.89C10.12.52,12.82.26,15.53.11c2.24-.12,4.49-.14,6.73-.07,1.31.04,2.62.08,3.9.4-.12.02-.25-.01-.35.1-.42.25-.86.02-1.27,0-2.78-.19-5.55-.19-8.33-.05-1.77.09-3.54.16-5.3.46-1.74.3-3.41.83-5,1.6-.11.06-.24.1-.31.22Z"/>
  <path class="cls-21" d="M1,7.56c-.09.22-.11.45-.09.69,0,.03,0,.05.01.08,0,.33-.08.65-.18.97-.08.11-.17.08-.26.02-.05-.06-.08-.13-.12-.19.2-1.18.4-2.37.81-3.49.41-1.13,1.18-1.94,2.37-2.31.3.23.07.32-.11.42-.95.34-1.5,1.07-1.92,1.94-.14.3-.23.62-.36.92,0,.33-.27.61-.16.96Z"/>
  <path class="cls-65" d="M6.82,37.67s.08-.07.12-.11c.36-.02.64.21.96.32.11.04.24.24.36,0,.1.03.07-.25.22-.1.08.1.33.09.19.32-.07.11-.13.22-.2.33-1.45-.17-2.86-.46-4.16-1.18-.17-.1-.32-.23-.48-.34.17-.14-.17-.3.02-.44.12-.08.21-.09.23.09-.11.14.12.11.1.2.57.43,1.25.62,1.9.85.29.1.61.13.78.24.01,0-.09-.03-.06-.18Z"/>
  <path class="cls-46" d="M.34,25.37c-.17.17-.04.39-.11.58-.17-.42-.1-.86-.12-1.29-.04-1.78.08-3.55.15-5.33.06-.51.06-1.02,0-1.53,0-.04,0-.08,0-.11.05-.1.11-.17.23-.09.27.6.12,1.23.1,1.85-.13.49-.07.99-.05,1.49,0,1.22,0,2.45,0,3.67,0,.27.04.56-.19.77Z"/>
  <path class="cls-75" d="M.35,17.56s-.07.08-.11.12C.1,15.6-.07,13.52.03,11.43c.07-.03.12-.01.16.05.07.12.08.24.08.37.04.81-.07,1.62.07,2.42.07.89.17,1.78.18,2.68,0,.22,0,.44-.17.61Z"/>
  <path class="cls-91" d="M.14,11.43h-.05s-.05,0-.05,0c-.07-.79.21-1.54.32-2.3.03.04.07.07.1.11.09.14.12.29.09.46-.07.46-.17.91-.18,1.38,0,.15-.01.34-.24.35Z"/>
  <path class="cls-95" d="M.26,17.8c.15.51.14,1.02,0,1.53,0-.51,0-1.02,0-1.53Z"/>
  <path class="cls-14" d="M39.53,15.71c-.18-.21-.06-.46-.11-.69-.16-.22-.16-.43.03-.63.15.13.08.31.11.46,0,.28-.01.57-.02.85Z"/>
  <path class="cls-84" d="M8.6,3.98c1.37-1.05,3.01-1.07,4.62-1.27,2.37-.29,4.75-.61,7.14-.68,3.82-.11,7.63.01,11.33,1.19.4.13.81.23,1.22.29,1.69.25,2.78,1.35,3.8,2.58.14.18.2.39.25.6.51,1.99,1.08,3.98,1.23,6.05.06.84-.06,1.68-.18,2.51-.21,1.42-.21,2.84-.22,4.26-.02,2.14.04,4.28.12,6.41.24.67.17,1.37.07,2.05-.26,1.8-1.24,3.21-2.56,4.39-1.06.95-2.18,1.82-3.33,2.67-.74.55-1.51,1.08-2.42,1.33-1.11.61-2.37.54-3.56.75-2.22.38-4.46.78-6.69,1.03-2.37.26-4.78.24-7.16-.09-1.17-.17-2.35-.29-3.51-.6-.63-.17-1.12-.47-1.49-1.01-.18-.27-.43-.5-.64-.74-.7-.46-1.19-1.11-1.54-1.87-.74-1.2-.81-2.59-1.09-3.91-.32-1.53-.58-3.08-.68-4.65-.2-.42-.24-.87-.25-1.32-.01-1.78-.01-3.56,0-5.35,0-.58.19-1.15.06-1.73.06-1.42.14-2.84.39-4.24.36-2.01.95-3.96,1.95-5.76.36-.65.98-1.06,1.49-1.59.43-.6,1-1.02,1.67-1.31Z"/>
  <path class="cls-19" d="M.91,8.25c.26-.38.28-.85.42-1.27.55-1.61,1.63-2.76,3.03-3.67.46-.3,1.02-.23,1.5-.45.93-.08,1.82-.43,2.77-.5-1.3.64-2.22,1.74-3.34,2.6-.19,0-.14-.13-.1-.23.12-.34.28-.66.52-.87-.43.29-.42.93-.83,1.3-.19.37-.28.79-.7,1.11.04-.54.07-1.02.11-1.52-.26.02-.24.21-.28.33-.64,2.26-1.38,4.5-2.21,6.7-.57,1.52-.7,3.13-.47,4.75.03.22,0,.44,0,.66-.09.18,0,.36.02.53.03.17,0,.36-.18.41-.22.05-.26-.15-.3-.31-.17-.6-.21-1.22-.31-1.83-.26-1.63-.32-3.27-.2-4.91.06-.46.16-.91.22-1.37.03-.15.12-.28.16-.42.05-.35.09-.71.18-1.05h0Z"/>
  <path class="cls-114" d="M.35,17.56c0-.18-.03-.37.1-.53,0-.23-.22-.5.12-.68.29,1.14.57,2.29.66,3.47.04.57-.12,1.15-.02,1.73.1,1.25.22,2.5.31,3.76.18,2.62.53,5.22.88,7.82.03.2.02.39.04.7-.41-.46-.59-.93-.77-1.39-.73-1.89-1.01-3.87-1.22-5.87-.04-.4-.08-.8-.12-1.2,0-1.48.02-2.96.03-4.45.12-.49-.02-.99.08-1.48-.02-.63.14-1.26-.09-1.88Z"/>
  <path class="cls-114" d="M38.14,28.23c-.2,2.33-.95,4.45-2.39,6.31-.56.73-1.36,1.02-2.2,1.24-.55.14-1.11.22-1.68.25-.51-.25-.09-.51-.01-.76.81-.79,1.74-1.43,2.62-2.13.86-.69,1.61-1.47,2.32-2.31.5-.6.74-1.33.97-2.06.06-.19.1-.39.22-.55.05-.02.1-.01.15.02Z"/>
  <path class="cls-63" d="M5.62,2.77c-.28-.01-.22-.08-.04-.19.97-.56,2.01-.94,3.08-1.27,2.56-.8,5.21-.9,7.85-1.02,2.54-.12,5.08-.1,7.62.06.56.04,1.12.12,1.68.19l1.3.26c.03.1,0,.15-.11.11-2.78-.32-5.57-.45-8.36-.23-3.03.24-6.08.37-9.03,1.21-1.31.37-2.67.59-4,.88Z"/>
  <path class="cls-63" d="M13.54,38.98c2.54.22,5.08.08,7.61.07,1.17,0,2.33-.15,3.46-.5.59-.18,1.19,0,1.79-.01-.98.56-1.91,1.19-3.11,1.21-3.35.06-6.68.07-9.98-.66,0-.21.11-.15.23-.11Z"/>
  <path class="cls-43" d="M39.44,14.39c0,.21-.02.42-.03.63-.16.36-.02.76-.14,1.17-.35-.89-.26-1.8-.25-2.67.02-2.01-.16-4.01-.47-5.99-.08-.54-.22-1.07-.57-1.52-.16-.19-.19-.43-.19-.73,1.19.84,1.9,1.88,1.97,3.32.08,1.65-.18,3.28-.27,4.92-.02.29-.04.58-.05.87Z"/>
  <path class="cls-93" d="M3.19,25.75c.03,2.08.62,4.07.95,6.1.02.12.05.25.08.41-.33-.39-.71-1.38-.9-2.08-.35-1.26-.32-2.57-.53-3.84-.39-2.32-.43-4.65-.23-6.98.09-1.1.07-2.22.35-3.3,0-.02.03-.04.04-.05-.01.67-.03,1.34.06,2.02.13.2.09.42.09.64,0,1.66-.01,3.32,0,4.98,0,.7.12,1.41.09,2.11Z"/>
  <path class="cls-43" d="M36.91,33.51c-.68,1.56-1.61,2.9-3.28,3.55-.15.06-.31.15-.46.15-1.7-.02-3.39.12-5.07.36-.13.02-.27,0-.5,0,1.44-.83,2.95-1.05,4.45-1.32.57-.1,1.15-.18,1.72-.3,1.14-.26,1.98-.88,2.58-1.87.14-.23.3-.46.45-.69.1-.02.16,0,.11.12Z"/>
  <path class="cls-93" d="M17.72.91c3.34-.21,6.68-.16,10,.31,1.07.15,2.09.48,3.16.95-4.32-.64-8.59-.65-12.83-1.07-.07-.12-.34.1-.32-.18Z"/>
  <path class="cls-26" d="M33.29,38.11c-3.65,1.34-7.29,2.7-11.29,2.27,1.29-.2,2.55-.6,3.88-.63,2.1-.05,4.08-.63,5.98-1.53.45-.21.91-.45,1.44-.22.04.02.05.05.04.07-.01.02-.03.04-.04.04Z"/>
  <path class="cls-93" d="M38.35,32.73c-.04.25-.1.5-.13.76-.23,2-1.43,3.15-3.26,3.77-.21.07-.41.15-.71.07.68-.62,1.32-1.22,1.98-1.81.43-.38.78-.81,1.01-1.34.22-.74.61-1.39,1.02-2.09.16.26.14.45.08.64Z"/>
  <path class="cls-112" d="M38.14,28.23s-.07,0-.11,0c-.05-.75-.03-1.5,0-2.26.03-.69.07-1.37-.01-2.05.02-2.53-.05-5.06.05-7.64.21.1.16.22.15.3-.05,2.3.26,4.59.35,6.89.07,1.6-.08,3.2-.44,4.77Z"/>
  <path class="cls-112" d="M3.63,7.49c.18,1.94-.51,3.6-1,5.3-.39,1.34-.59,2.7-.74,4.08-.03.25-.08.5-.14.85-.37-1.06-.1-2,.09-2.92.41-2.05.9-4.09,1.37-6.13.09-.38.26-.73.42-1.19Z"/>
  <path class="cls-86" d="M38.02,23.92c.14,1.44.15,2.87.01,4.31-.42,2.26-1.94,3.74-3.62,5.1-.81.65-1.62,1.3-2.44,1.94-.12.15-.29.27-.43.4-.36.31-.86.38-1.21.71-.23.23-.44-.01-.66-.02,2.02-1.06,3.77-2.49,5.49-3.96,1.37-1.17,2.38-2.56,2.68-4.39.11-.69.01-1.39.07-2.08.22-.66,0-1.34.11-2Z"/>
  <path class="cls-88" d="M31.17,38.25c-1.93.93-3.91,1.27-5.97,1.23.52-.28,1.04-.55,1.55-.85.25-.15.5-.08.74-.1,1.2-.1,2.39-.18,3.68-.28Z"/>
  <path class="cls-26" d="M18.23,40.3c-2.12-.04-4.26.18-6.32-.54-.27-.1-.53-.22-.8-.33.04-.27.23-.13.36-.12,2.1.31,4.23.39,6.31.8.12.14.42-.13.45.2Z"/>
  <path class="cls-112" d="M6.49,35.81c.27.34.54.68.81,1.03-1.73-.53-3.82-2.65-3.52-4.7.4.64.59,1.32.87,1.96.09.2.18.4.31.57.1.13.21.14.21-.08-.07-.31.05-.32.23-.12.38.43.79.84,1.1,1.34Z"/>
  <path class="cls-88" d="M32.78,37.43c-1.74.87-3.64.69-5.53.93.14-.43.36-.53.73-.58,1.59-.22,3.19-.3,4.79-.34Z"/>
  <path class="cls-45" d="M39.42,27.12c.05-.18.03-.39.19-.55.17,2.22-.34,4.33-.88,6.44-.02.09,0,.29-.21.24-.1-.03-.05-.12-.06-.19.12-.13-.01-.32.09-.45.1-1.21.2-2.41.46-3.6.11-.17-.05-.35,0-.52,0-.05.02-.1.04-.15.15-.4.08-.86.37-1.21Z"/>
  <path class="cls-45" d="M21,38.08l6.73-1c-2.13,1.02-4.38,1.3-6.73,1Z"/>
  <path class="cls-7" d="M38.81,22.56c-.36-2.44-.4-4.89-.31-7.35.47,2.43.61,4.88.31,7.35Z"/>
  <path class="cls-45" d="M7.49,3.54c1.46-1.06,3.18-1.31,4.9-1.54,1.16-.15,2.32-.29,3.57-.24-.41.23-.78.18-1.14.22-1.38.16-2.75.32-4.09.72-1.04.31-2.15.39-3.12.93-.12.06-.12,0-.11-.1Z"/>
  <path class="cls-68" d="M12.1,1.67c2.95-.74,5.92-.4,8.89-.14-2.88.22-5.78-.2-8.66.25-.11.03-.24.1-.24-.11Z"/>
  <path class="cls-88" d="M2.97,30.54c.1,1.31.54,2.54.83,3.81.12.53.33,1.02.76,1.44-.89-.25-1.4-.85-1.51-1.63-.07-.49,0-.98-.16-1.46-.27-.35,0-.71-.03-1.07v-.75c-.01-.13-.14-.3.11-.35Z"/>
  <path class="cls-49" d="M37.11,33.69c1.02-2.16,1.16-4.52,1.56-6.84.13.54,0,1.09-.02,1.63-.02.57-.05,1.13-.12,1.69-.07.56-.21,1.11-.32,1.66-.17.76-.42,1.47-1,2.03-.1-.02-.16-.06-.11-.17Z"/>
  <path class="cls-81" d="M1.22,21.55c-.2-.67-.04-1.37-.16-2.05-.19-1.04-.34-2.08-.51-3.12-.21-.7-.24-1.42-.28-2.13-.08-.82-.02-1.64-.03-2.46.04-.34.04-.68.1-1.02.25,0,.16.16.13.29.03,1.6-.06,3.2.21,4.78.13.76.24,1.52.38,2.39.26-.39.08-.74.25-1.02-.1.27.34.34.23.61-.11.58-.02,1.16-.05,1.74-.01.23.03.48-.17.66-.21.43-.03.9-.1,1.34Z"/>
  <path class="cls-109" d="M4.19,8.68c.37-1.44.85-2.83,1.88-3.96.26-.28.49-.59.84-.77.12-.04.15.02.13.12-1.21,1.4-2.11,2.98-2.76,4.71-.09.02-.15.01-.1-.1Z"/>
  <path class="cls-86" d="M3.19,25.75c-.18-.62-.17-1.26-.18-1.89-.04-1.95,0-3.9,0-5.84.19-.37.01-.77.11-1.14.17,1.14.1,2.29.09,3.43-.01,1.66-.02,3.31.1,4.96-.15.13-.06.32-.11.48Z"/>
  <path class="cls-45" d="M16.38,38.66c2.27-.16,4.54-.34,6.82-.15-2.26.36-4.54.26-6.82.24-.04-.02-.05-.04-.04-.06.01-.02.02-.03.04-.03Z"/>
  <path class="cls-40" d="M2.56,32.61c-.25-1.94-.52-3.87-.53-5.83.52,1.75.56,3.56.65,5.37.06.18.17.38-.12.46Z"/>
  <path class="cls-100" d="M2.67,15.72c-.22,1.88-.34,3.78-.46,5.67-.36-1.96-.13-3.88.36-5.78.1-.02.15,0,.1.11Z"/>
  <path class="cls-80" d="M1.32,20.21c.07-.8-.1-1.62.23-2.4.24,1.9-.02,3.82.21,5.73-.32-1.09-.24-2.23-.44-3.33Z"/>
  <path class="cls-106" d="M38.87,28.23c.12-1.61.24-3.21.36-4.82.28.05.06.32.19.43.08,1.02-.06,2.03-.11,3.04.02.54-.18,1.05-.21,1.58h0c-.24.09-.3,0-.24-.23Z"/>
  <path class="cls-45" d="M6.36,5.26c.69-1.14,1.7-1.81,3.1-2.06-.38.25-.68.45-.99.66-.5.5-1.04.96-1.66,1.3l-.31.23c-.11.02-.16-.02-.14-.14Z"/>
  <path class="cls-40" d="M1.49,15.56c-.13-1.63.2-3.17.91-4.64-.22,1.56-.72,3.07-.91,4.64Z"/>
  <path class="cls-17" d="M38.46,8.66c.28,1.21.35,2.45.33,3.69,0,.2,0,.4,0,.6,0,.12.15.3-.11.33-.35-1.41-.17-2.85-.33-4.27.08-.1-.02-.26.1-.35Z"/>
  <path class="cls-10" d="M6.82,37.67c.12.09.25.19.47.35-1.19-.21-2.21-.55-3.14-1.14,0,0-.02-.03-.01-.04.02-.03.04-.05.07-.07.89.26,1.85.32,2.62.9Z"/>
  <path class="cls-106" d="M4.09,36.57c-.06-.08-.13-.11-.23-.09-.48-.26-.56-.39-.65-1.27.59,1.01,1.68,1,2.37,1.68l-1.49-.31Z"/>
  <path class="cls-23" d="M39.49,18.41c.36,1.27.19,2.55.11,3.99-.33-1.42-.19-2.71-.11-3.99Z"/>
  <path class="cls-100" d="M18.03,39.96s-.03-.02-.05-.03c0,0,0-.01-.01-.02.64-.08,1.26.08,1.9.07.82-.02,1.65,0,2.47.03-.94.36-1.92.22-2.88.18-.16-.08-.32-.06-.47-.02-.36.11-.68.03-.96-.21Z"/>
  <path class="cls-40" d="M37.72,7.2c-.37-.62-.85-1.17-1.02-1.92.82.42,1.1,1.08,1.02,1.92Z"/>
  <path class="cls-111" d="M35.27,3.41c.71.31,1.43.62,2.03,1.27-.92-.14-1.5-.71-2.14-1.17-.02-.1,0-.16.11-.11Z"/>
  <path class="cls-21" d="M37.22,33.82c.44-.61.67-1.32.99-1.99.46.11.1.57.33.78-.01.15.07.33-.09.45-.02-.11.02-.24-.09-.33v-.62c-.38.79-.64,1.48-1.1,2.07-.03-.04-.07-.09-.1-.13-.1-.12,0-.17.07-.23Z"/>
  <path class="cls-51" d="M6.49,35.81c-.45-.38-.81-.83-1.17-1.29-.22-.28-.14-.02-.16.07-.18-.24-.28-.49-.1-.77.51.62,1.02,1.25,1.54,1.87-.04.04-.08.08-.11.12Z"/>
  <path class="cls-2" d="M16.38,38.66s0,.06,0,.09c-1.32.03-2.64.06-3.95-.21,0-.21.13-.14.24-.11,1.24.07,2.47.26,3.71.24Z"/>
  <path class="cls-20" d="M4.07,34.42c.48.78,1.01,1.31,1.71,1.82-.83-.13-1.56-.9-1.71-1.82Z"/>
  <path class="cls-6" d="M12.1,1.67c.08.04.16.07.24.11-1.05.26-2.13.31-3.17.62.92-.49,1.94-.54,2.94-.73Z"/>
  <path class="cls-77" d="M9.99,38.69c1.03.19,2.09.26,3.1.59-1.06-.03-2.09-.24-3.1-.59Z"/>
  <path class="cls-35" d="M27.25,37.81c-.33.59-.45.62-1.47.4.5-.22.94-.43,1.47-.4Z"/>
  <path class="cls-39" d="M13.94,2.3c1.09-.21,2.19-.28,3.3-.33.1-.02.24-.1.22.11-1.1.11-2.19.22-3.29.33-.06-.07-.19,0-.23-.11Z"/>
  <path class="cls-95" d="M6.82,5.17c.52-.48,1.04-.96,1.66-1.3.04.04.09.08.13.11-.56.44-1.11.87-1.67,1.31-.04-.04-.08-.08-.12-.12Z"/>
  <path class="cls-96" d="M4.92,5.85c-.42.92-.59,1.93-1.01,2.85.17-1.01.52-1.96,1.01-2.85Z"/>
  <path class="cls-110" d="M8.67,38.11c-.06-.11-.13-.21-.19-.32.61.1,1.16.38,1.74.55,0,.2-.12.14-.23.1-.44-.11-.94,0-1.32-.33Z"/>
  <path class="cls-33" d="M4.87,5.18c.23-.66.52-1.27,1.23-1.75-.28.6-.85.93-.81,1.55-.16.02-.08.55-.42.2Z"/>
  <path class="cls-85" d="M8.25,37.89c.05.09.11.18.19.31-.58-.11-1.02-.43-1.51-.64.5-.13.92.03,1.32.33Z"/>
  <path class="cls-79" d="M31.33,2.73c.48.04.98.06,1.49.46-.71.01-1.26-.24-1.83-.34.03-.26.21-.11.34-.12Z"/>
  <path class="cls-11" d="M18.03,39.96l1.43.23c-.39.26-.81.27-1.23.11-.1-.18-.34-.04-.45-.2.09-.04.2-.02.25-.14Z"/>
  <path class="cls-47" d="M37.29,7.04c.45.6.54,1.29.58,2.14-.33-.78-.44-1.47-.58-2.14Z"/>
  <path class="cls-114" d="M30.32,36.37c-.06-.03-.24-.03-.05-.13.41-.23.83-.45,1.25-.67.09.3-.15.42-.33.57-.27.17-.59.12-.88.23Z"/>
  <path class="cls-15" d="M3.24,12.63c-.2.7-.41,1.41-.61,2.11.01-.76.21-1.46.61-2.11Z"/>
  <path class="cls-43" d="M31.2,36.14c.11-.19.22-.38.33-.57.12-.14.27-.24.44-.3,0,.26-.44.46-.09.76-.21.11-.44.13-.67.11Z"/>
  <path class="cls-1" d="M39.1,28.46c-.21-.56.11-1.05.21-1.58.04.08.07.16.11.24-.06.46-.1.91-.31,1.33Z"/>
  <path class="cls-105" d="M13.54,38.98c-.08.04-.15.07-.23.11l-1.63-.28c0-.05.02-.1.02-.15.61.11,1.22.22,1.83.32Z"/>
  <path class="cls-44" d="M5.83,36.71c.47.1.87.19,1.28.53-.53-.04-.94-.1-1.28-.53Z"/>
  <path class="cls-41" d="M39.25,17.93c-.22-.4-.13-.81-.14-1.28.32.45.21.87.14,1.28Z"/>
  <path class="cls-26" d="M38.46,8.66c-.03.12.01.26-.1.35l-.15-1.51c-.04-.11,0-.14.11-.12.07.43.17.85.14,1.28Z"/>
  <path class="cls-70" d="M2.56,32.61c.17-.12.04-.32.12-.46.03.01.05.03.08.04.11.25.05.5.03.75v.68s-.06.01-.09.02c-.05-.34-.1-.69-.14-1.03Z"/>
  <path class="cls-101" d="M37.22,33.82c-.02.08-.05.15-.07.23-.22.28-.34.64-.72.94.2-.53.42-.92.68-1.3.04.04.07.09.11.13Z"/>
  <path class="cls-3" d="M9.99,38.45c.08-.03.15-.07.23-.1.39.09.79.18,1.18.27-.49.07-.96,0-1.41-.16Z"/>
  <path class="cls-13" d="M3.25,30.98c.18.41.31.84.24,1.3-.24-.4-.21-.86-.24-1.3Z"/>
  <path class="cls-78" d="M17.72.91c.11.06.21.12.32.18-.37.06-.75.03-1.18-.01.28-.29.58-.18.86-.17Z"/>
  <path class="cls-83" d="M39.42,23.84l-.19-.43v-1.01c.12.48.24.95.19,1.44Z"/>
  <path class="cls-64" d="M33.87,3.31c.4.08.75.24,1.1.47-.51,0-.61-.05-1.1-.47Z"/>
  <path class="cls-9" d="M38.9,25.04c-.05.43.08.89-.16,1.39-.17-.54.04-.96.05-1.39.04-.04.08-.04.12,0Z"/>
  <path class="cls-20" d="M2.78,34.65c.27.46.2.85.27,1.21-.26-.31-.32-.67-.27-1.21Z"/>
  <path class="cls-61" d="M2.97,30.54c-.12.09-.06.24-.11.35-.16-.46-.1-.92-.02-1.4.04.35.08.7.13,1.05Z"/>
  <path class="cls-107" d="M13.94,2.3c.08.04.16.08.23.11-.43.05-.87.09-1.3.14-.1.03-.23.1-.21-.11.43-.05.85-.1,1.28-.15Z"/>
  <path class="cls-58" d="M31.33,2.73c-.11.05-.27-.04-.34.12-.3-.08-.59-.15-.89-.23.43-.09.83-.01,1.22.11Z"/>
  <path class="cls-2" d="M33.29,38.11s0-.07,0-.11c.28-.22.59-.37,1.06-.3-.39.21-.7.36-1.06.41Z"/>
  <path class="cls-1" d="M38.87,28.23c.04.11.06.25.24.21,0,.2.03.4-.11.57-.36-.21-.29-.49-.13-.79Z"/>
  <path class="cls-108" d="M38.32,7.38s-.07.08-.11.12c-.09-.34-.19-.68-.28-1.02.3.24.36.57.39.9Z"/>
  <path class="cls-25" d="M28.08,1.93c-.33.29-.62,0-.93,0h.93Z"/>
  <path class="cls-22" d="M17.46,2.08c-.07-.04-.15-.07-.22-.11.4-.17.81-.05,1.22,0-.33.04-.67.08-1,.12Z"/>
  <path class="cls-57" d="M36.89,4.83c.48.13.72.31.67.79-.23-.27-.42-.5-.67-.79Z"/>
  <path class="cls-87" d="M38.13,10.66l-.07-.9c.2.29.17.6.07.9Z"/>
  <path class="cls-90" d="M2.48,27.12c.22.31.16.54.17.88-.18-.31-.26-.53-.17-.88Z"/>
  <path class="cls-53" d="M2.79,32.94c-.01-.25-.02-.5-.03-.75.04-.19-.06-.4.1-.56.06.36.08.71.03,1.07-.03.08-.06.16-.09.24Z"/>
  <path class="cls-74" d="M4.19,8.68s.07.07.1.1l-.34.81c-.03-.35.07-.64.25-.92Z"/>
  <path class="cls-34" d="M11.47,39.3c-.12.05-.28-.02-.36.12l-.64-.24s.02-.08.03-.12c.32.08.65.16.97.23Z"/>
  <path class="cls-39" d="M38.68,13.28c.04-.11.07-.22.11-.33.11.28.11.57.03.87-.05-.18-.21-.32-.14-.54Z"/>
  <path class="cls-27" d="M4.01,7.47c-.08-.36-.01-.62.26-.87.04.34-.14.57-.26.87Z"/>
  <path class="cls-37" d="M12.66,2.44c.07.04.14.07.21.11-.29.19-.6.08-.9.06.22-.09.44-.2.69-.17Z"/>
  <path class="cls-32" d="M34.39,3.19c-.28-.09-.56-.18-.99-.33.46-.02.74.02.98.2.06.04.06.08,0,.13Z"/>
  <path class="cls-72" d="M12.67,38.42l-.24.11c-.24-.04-.48-.07-.72-.11.33-.1.65-.15.96,0Z"/>
  <path class="cls-34" d="M36.91,33.51s-.07-.08-.11-.12c.12-.25.24-.5.4-.83.08.43-.15.67-.29.95Z"/>
  <path class="cls-36" d="M38.09,8.36c-.12-.19-.26-.38-.11-.66.23.22.08.46.11.66Z"/>
  <path class="cls-89" d="M2.1,25.38c.18.3.11.53.07.76-.05-.22-.25-.41-.07-.76Z"/>
  <path class="cls-101" d="M7.04,4.07s-.09-.08-.13-.12c.16-.19.36-.3.58-.4.04.03.07.06.11.1-.19.14-.37.29-.56.43Z"/>
  <path class="cls-64" d="M34.39,3.19s0-.08,0-.13c.31.07.62.15.89.34-.04.04-.08.07-.11.11-.26-.11-.51-.21-.77-.32Z"/>
  <path class="cls-54" d="M2.67,15.72s-.07-.07-.1-.11c.05-.2.09-.41.14-.61.05.25.14.5-.03.72Z"/>
  <path class="cls-48" d="M6.36,5.26s.09.09.14.14c-.13.14-.26.28-.39.41,0-.24.07-.42.25-.55Z"/>
  <path class="cls-102" d="M32.96,37.63c.25-.15.42-.3.72-.19-.23.19-.42.28-.72.19Z"/>
  <path class="cls-39" d="M27.02.91l.11-.11c.22-.04.41.07.65.17-.29.05-.53.09-.75-.06Z"/>
  <path class="cls-30" d="M38.9,25.04h-.12c-.06-.25.12-.46.16-.7.05.24.11.47-.04.7Z"/>
  <path class="cls-10" d="M1.11,6.59c.28-1.24.84-2.29,2.05-2.88.09-.05.21-.2.27.03-1.03.8-1.83,1.78-2.23,3.05-.2,0-.13-.1-.09-.2Z"/>
  <path class="cls-18" d="M1.11,6.59c.03.07.06.13.09.2-.07.26-.13.52-.2.77-.19-.35,0-.66.11-.97Z"/>
  <path class="cls-42" d="M.35,10.77c0,.33-.01.66-.02.99-.07.06-.13.06-.2,0,0-.11,0-.22,0-.34.11-.73.21-1.46.32-2.2l.22.11s.06-.05.09,0c.02.13.03.26-.08.36-.27.31,0,.79-.34,1.08Z"/>
  <path class="cls-82" d="M.77,9.34h-.05s-.05,0-.05,0c0-.38.05-.75.23-1.09.06.38-.08.73-.14,1.09Z"/>
  <path class="cls-95" d="M.44,19.44c0,.5.06.99-.08,1.48.02-.49-.11-1,.08-1.48Z"/>
  <path class="cls-16" d="M.14,11.77c.07,0,.13,0,.2,0,0,.85,0,1.69-.01,2.54-.02,0-.05-.01-.07-.02-.25-.83-.07-1.68-.11-2.52Z"/>
  <path class="cls-105" d="M.25,14.28s.05.02.07.02c.08.69.15,1.38.23,2.08-.19.19-.03.44-.1.65-.17-.91-.2-1.83-.2-2.75Z"/>
  <path class="cls-69" d="M13.31,12.2c1.22-.84,2.17-2.08,3.7-2.46,1.63-.4,3.27-.48,4.93-.12.9.2,1.84.22,2.72.59.68.29,1.26.7,1.78,1.24.67.7,1.42,1.32,2.08,2.01,1.33,1.39,2.29,3.01,2.12,4.99-.15,1.77-.39,3.55-1.26,5.17-.18.34-.27.72-.38,1.08-.1.07-.21-.09-.31.02-.76.98-1.47,2-2.29,2.93-1.35,1.54-3.14,2.19-5.15,2.31-1.96.12-3.82-.12-5.47-1.32-.3-.22-.68-.36-1.02-.52-1.74-.8-2.87-2.15-3.52-3.92-.54-1.47-.97-2.98-1.08-4.55-.1-1.37.2-2.68.75-3.94.24-.02.25-.27.38-.4.75-.85,1.54-1.66,2.03-2.7.04-.08.21-.13.06-.26-.06-.04-.1-.08-.06-.15Z"/>
  <path class="cls-92" d="M33.11,10.59c.06-.2.09-.33.16-.55-.86,1.12-1.63,1.07-2.69.79-.68-.18-1.07-.97-.97-1.71.13-.89.88-1.63,1.74-1.7,1.34-.11,2.19.78,2.04,2.13-.04.34.13.74-.29,1.05Z"/>
  <path class="cls-1" d="M13.31,12.2s.08.07.12.11c.03.28-.2.42-.36.57-.75.73-1.29,1.6-1.74,2.53-.21,0,.06.7-.43.3.46-1.41,1.25-2.58,2.41-3.51Z"/>
  <path class="cls-99" d="M28.68,24.73c.08-.36.2-.13.31-.02-.11.5-.27.98-.62,1.48.05-.56.4-.96.31-1.46Z"/>
  <path class="cls-91" d="M.35,10.77c.07-.38.11-.78.24-1.15.06-.17.06.06.1.07-.04.46-.09.91-.22,1.35-.01-.1-.01-.21-.12-.28Z"/>
  <path class="cls-84" d="M12.87,23.93c-.78-.89-.65-2.04-.87-3.09-.37-1.76.11-3.38.77-4.98.19-.94.88-1.51,1.59-2.01,1.24-.88,2.65-1.32,4.18-1.48,1.37-.15,2.69,0,4,.33,1.2.3,2.03,1.02,2.52,2.15.24.42.84.56.9,1.12.45.01.66.41.98.62.35.23.53.56.68.96.44,1.22.49,2.5.54,3.77.02.47-.3.81-.51,1.19.05.12.01.22-.07.32-.71.76-1.43,1.5-2.28,2.12-1.25.91-2.55,1.73-4.1,2-1.55.28-3.05.09-4.52-.47-1.1-.42-2.14-.95-3.06-1.68-.3-.24-.58-.5-.74-.87Z"/>
  <path class="cls-63" d="M14.29,25.82l-.87-.89c-.02-.11.05-.15.15-.16.98.67,1.99,1.28,3.12,1.69,2.72.99,5.29.74,7.7-.9.98-.67,1.91-1.4,2.7-2.3.13-.15.24-.33.48-.32.14.61-.25.98-.63,1.35-.8,1.22-1.98,2.03-3.09,2.91-.26.21-.55.32-.89.4-.96.21-1.93.4-2.91.5-1.31.14-2.54-.14-3.67-.81-.44-.26-.86-.54-1.29-.81-.36-.09-.64-.29-.79-.64Z"/>
  <path class="cls-63" d="M14.17,13.6c1.6-1.63,3.59-2.46,5.81-2.8.17-.03.38-.09.35.23-.04.36.19.46.49.53.77.17,1.55.25,2.29.53.87.33,1.64.76,2.18,1.56.43.63.94,1.2,1.33,1.88-.77.04-.94-.67-1.38-1.03-.25-.1-.44-.28-.59-.48-.59-.76-1.43-1.13-2.32-1.36-.89-.23-1.81-.4-2.75-.37-1.72.06-3.36.4-4.85,1.3-.14.08-.27.2-.44.19-.09-.03-.16-.08-.13-.19Z"/>
  <path class="cls-43" d="M26.33,27.29c-1.35,2.15-5.63,3.13-8.55,2.14,2.84-.25,5.74-.74,8.55-2.14Z"/>
  <path class="cls-93" d="M28.11,15.3c-1.53-2.39-3.73-4-6.4-4.73,2.41-.37,6.05,1.71,6.4,4.73Z"/>
  <path class="cls-93" d="M25.33,13.49c.23-.13.3-.02.37.05,1.72,1.6,2.91,3.49,3.19,5.88.08.64-.13,1.17-.44,1.71-.17-2.9-.92-5.57-3.13-7.64Z"/>
  <path class="cls-59" d="M27.59,22.95c-.91.88-1.8,1.78-2.86,2.5-1.79,1.21-3.7,1.96-5.91,1.65-1.97-.28-3.73-1.06-5.31-2.27-.24-.1-.46-.23-.55-.5-.11-.12-.11-.26-.1-.41,1.55,1.53,3.41,2.48,5.54,2.88,1.96.37,3.76-.03,5.45-1.07,1.2-.74,2.3-1.61,3.25-2.66.13-.14.21-.36.46-.34.08-.01.14,0,.14.1,0,.09-.05.12-.13.12Z"/>
  <path class="cls-98" d="M14.29,13.73c2.56-1.57,5.28-1.89,8.16-1.13,1.17.31,2.07.97,2.79,1.91-.07.11-.13.22-.2.33-.31-.23-.5-.52-.67-.88-.26-.52-.83-.77-1.37-.95-2.91-.97-5.71-.78-8.39.79-.83.49-1.37,1.25-1.85,2.05-.03-.05-.06-.09-.1-.14-.13-.13.05-.22.05-.33.18-.21.31-.45.47-.66h0c.34-.35.61-.79,1.11-.98Z"/>
  <path class="cls-45" d="M14.41,26.57s.06.02.09.02c.13.05.29.04.34.21,1.56.95,3.23,1.56,5.04,1.82-2.24.47-4.03-.39-5.58-1.94-.02-.1,0-.15.11-.12Z"/>
  <path class="cls-26" d="M27.77,24.26c-.19,1.4-1.35,2.45-3.12,2.83,1.03-.98,1.99-1.99,3.12-2.83Z"/>
  <path class="cls-88" d="M13.39,13.33c.64-1.53,1.75-2.39,3.39-2.51-1.29.62-2.24,1.71-3.39,2.51Z"/>
  <path class="cls-109" d="M12.31,14.73c-.04.34-.17.61-.34.87-.81,1.25-1.29,2.61-1.34,4.13-.52-1.21.1-3.76,1.67-5Z"/>
  <path class="cls-7" d="M15.41,10.83c1.58-1.23,3.4-1.25,5.24-1.16-1.74.41-3.53.64-5.24,1.16Z"/>
  <path class="cls-10" d="M11.35,18.51c-.18,1.5.22,2.85.29,4.24-.94-1.22-.96-2.62-.29-4.24Z"/>
  <path class="cls-49" d="M29.35,20.66c-.24.95-.3,1.97-1.04,2.78-.06-.45.1-1.48.24-1.85.26-.7.75-1.32.69-2.12.46.36.26.78.12,1.2Z"/>
  <path class="cls-49" d="M11.33,15.41c-.17-.09-.03-.18,0-.26.47-1.11,1.24-2.01,2.09-2.84.09-.06.18-.12.3-.19-.62,1.26-1.4,2.35-2.4,3.3Z"/>
  <path class="cls-66" d="M27.71,13.45c1.27,1.12,1.35,2.69,1.6,4.2-.45-1.43-.97-2.83-1.6-4.2Z"/>
  <path class="cls-68" d="M16.19,28.43c-1.58-.71-2.94-1.67-3.61-3.38,1.05,1.3,2.12,2.56,3.61,3.38Z"/>
  <path class="cls-68" d="M23.17,11.88c-.73-.22-1.48-.36-2.23-.49-.19-.03-.45-.06-.41-.34.04-.25.28-.25.48-.26.3-.01.57.11.83.24.48.25.97.49,1.46.73.02.1,0,.16-.12.12Z"/>
  <path class="cls-17" d="M29.68,18.43c-.05-.84-.22-1.67-.45-2.54.69.58,1.04,3.28.54,4.26v-1.02c-.2-.21.06-.47-.08-.69Z"/>
  <path class="cls-100" d="M29.53,15.28c.76,1.18,1.05,2.47.81,3.87-.05-1.34-.31-2.63-.81-3.87Z"/>
  <path class="cls-100" d="M22.57,27.93c-.85.52-1.74.64-2.7.4.91-.08,1.8-.28,2.7-.4Z"/>
  <path class="cls-94" d="M26.66,26.61c-1.02.92-2.26,1.39-3.58,1.7,1.24-.46,2.45-.99,3.58-1.7Z"/>
  <path class="cls-71" d="M11.52,23.85c.67.56.81,1.39,1.12,2.13-.53-.62-.9-1.34-1.12-2.13Z"/>
  <path class="cls-104" d="M19.55,10.43c-.91.13-1.77.48-2.66.66.7-.37,1.4-.76,2.22-.77.16-.01.36-.17.45.11Z"/>
  <path class="cls-21" d="M27.59,22.95c.1-.08.08-.15-.02-.21-.01-.09-.05-.18.06-.23.46-.13.39.19.38.46-.28.51-.41,1.12-.98,1.43-.04-.04-.07-.08-.11-.12.17-.47.58-.82.66-1.33Z"/>
  <path class="cls-51" d="M29.68,18.43c.11.22.09.45.08.69-.13.08-.09.22-.11.33-.11.32-.01.66-.05.99-.01.12.09.3-.14.33-.04-.04-.08-.08-.11-.12-.06-.4.14-.82-.12-1.2-.04-.2-.03-.36.23-.38.08-.09-.02-.24.11-.31.12-.09.06-.24.11-.35Z"/>
  <path class="cls-104" d="M27.03,24.4c.43-.41.53-1.04.98-1.43.12.74-.35,1.14-.87,1.51-.01,0-.07-.05-.11-.07Z"/>
  <path class="cls-29" d="M19.8,28.98c-.78.26-1.56.34-2.46,0h2.46Z"/>
  <path class="cls-94" d="M14.62,26.48c-.56-.43-1.21-.78-1.5-1.5.35.32.7.63,1.06.95.22.08.41.2.53.4.06.09.04.16-.1.15Z"/>
  <path class="cls-5" d="M23.04,10.25c-.89-.11-1.65-.2-2.52-.3.89-.1,1.66-.15,2.52.3Z"/>
  <path class="cls-12" d="M23.46,10.17c.74.07,1.39.27,1.91.76-.64-.25-1.27-.51-1.91-.76Z"/>
  <path class="cls-97" d="M27.91,15.92c-.34-.61-.74-1.18-1.16-1.74.66.36.92,1.03,1.27,1.64.04.11,0,.13-.11.1Z"/>
  <path class="cls-38" d="M22.18,10.99c.48,0,.92.15,1.34.36.1.05.19.14.11.25-.08.11-.16,0-.23-.04-.41-.19-.81-.38-1.22-.58Z"/>
  <path class="cls-24" d="M24.22,11.86c.63.25,1.1.7,1.59,1.14-.62-.26-1.08-.74-1.59-1.14Z"/>
  <path class="cls-35" d="M12.82,15.38c-.05.11-.1.22-.15.33-.31.45-.4,1-.67,1.48-.07-.7.35-1.23.66-1.8.05-.05.1-.05.16,0Z"/>
  <path class="cls-51" d="M14.62,26.48c.08-.18-.11-.2-.18-.29-.07-.1-.17-.17-.26-.26.04-.04.07-.07.11-.11.26.21.53.43.79.64-.08.11-.16.22-.23.33-.14-.03-.26-.09-.34-.21.04-.04.08-.07.12-.11Z"/>
  <path class="cls-6" d="M11.04,18.49c0-.56.21-1.06.47-1.55.03.58-.28,1.04-.47,1.55Z"/>
  <path class="cls-103" d="M15.69,12.02c.4-.34.84-.58,1.36-.66-.43.27-.86.54-1.36.66Z"/>
  <path class="cls-47" d="M14.29,13.73c-.37.33-.74.66-1.11.99.23-.46.61-.79.98-1.12.04.04.08.09.12.13Z"/>
  <path class="cls-56" d="M27.25,16.57c-.4-.32-.72-.49-.97-.85.47.09.75.32.97.85Z"/>
  <path class="cls-27" d="M11.89,23.86c-.33-.42-.51-.76-.59-1.14.22.31.55.56.59,1.14Z"/>
  <path class="cls-103" d="M29.46,20.77c.17-.36.06-.74.05-1.11,0-.13,0-.21.14-.21-.04.55.12,1.11-.09,1.65-.05-.02-.08-.05-.1-.1,0-.08,0-.15,0-.23Z"/>
  <path class="cls-29" d="M24.86,27.31c-.33.26-.7.4-1.2.52.37-.45.81-.42,1.2-.52Z"/>
  <path class="cls-76" d="M28.56,16.71c.32.29.45.67.37,1.11-.12-.37-.25-.74-.37-1.11Z"/>
  <path class="cls-64" d="M29.59,22.55c-.02-.39.04-.75.33-1.13,0,.47-.16.8-.33,1.13Z"/>
  <path class="cls-22" d="M14.49,13.05c-.25.25-.5.5-.76.75.14-.35.34-.65.76-.75Z"/>
  <path class="cls-31" d="M29.46,21s.07.07.1.1c0,.38-.03.75-.33,1.09-.02-.45.19-.8.23-1.19Z"/>
  <path class="cls-62" d="M28.66,24.15c.15-.31.3-.62.5-1.03,0,.51-.19.83-.39,1.14-.1.02-.15,0-.11-.11Z"/>
  <path class="cls-52" d="M12.7,24.82c-.35-.31-.52-.53-.56-.91.32.21.45.46.56.91Z"/>
  <path class="cls-61" d="M11.58,17.9c.07.39.13.8.04,1.19-.05,0-.09,0-.14-.01l.1-1.18Z"/>
  <path class="cls-87" d="M19.55,10.43c-.11-.19-.31-.04-.45-.11.33-.16.68-.09,1.03-.05-.19.08-.36.21-.58.17Z"/>
  <path class="cls-56" d="M23.17,11.88s.08-.08.12-.12c.33.1.6.29.83.57-.32-.15-.63-.3-.95-.45Z"/>
  <path class="cls-62" d="M11.84,21.75c-.17-.35-.18-.68-.14-1.03.18.32.23.65.14,1.03Z"/>
  <path class="cls-20" d="M12.35,23.72c-.38-.27-.46-.56-.46-.95.24.28.34.54.46.95Z"/>
  <path class="cls-28" d="M14.41,26.57s-.08.08-.11.12c-.23-.12-.38-.3-.45-.57.19.15.38.3.56.46Z"/>
  <path class="cls-25" d="M10.74,21.98c-.11-.37-.26-.66-.14-1.06.15.36.26.65.14,1.06Z"/>
  <path class="cls-60" d="M29.57,18.78c-.02.11.02.23-.11.31-.03-.29-.06-.57-.1-.86.27.14.15.37.2.55Z"/>
  <path class="cls-58" d="M28.66,24.15s.07.07.11.11c-.11.26-.26.48-.52.7.05-.35.24-.58.41-.81Z"/>
  <path class="cls-72" d="M12.82,15.38c-.05,0-.1,0-.16,0,.14-.26.25-.53.53-.67,0,.29-.25.44-.37.67Z"/>
  <path class="cls-16" d="M27.91,15.92s.07-.07.11-.1c.17.2.24.45.35.79-.28-.23-.36-.47-.45-.69Z"/>
  <path class="cls-50" d="M12.97,24.33c.18.17.37.33.55.5-.03.03-.07.07-.1.1-.19-.17-.46-.28-.45-.6Z"/>
  <path class="cls-62" d="M32.24,9.58c-.12-.43-.19-.88-.58-1.17-.08-.06-.08-.16.02-.22.15-.08.29-.03.37.11.2.4.28.82.19,1.27Z"/>
  <path class="cls-8" d="M29.82,9.15c.11.52.35.97.76,1.38-.6-.24-.83-.68-.76-1.38Z"/>
  <path class="cls-38" d="M31.33,9.73c-.16-.25-.34-.42-.16-.67.05-.07.16-.13.23-.03.15.21.13.43-.07.7Z"/>
  <path class="cls-55" d="M32.43,9.23c-.04-.25-.08-.51-.12-.79q.24.27.12.79Z"/>
  <path class="cls-67" d="M31.8,9.21c.2.34.13.53-.19.77.07-.29.12-.49.19-.77Z"/>
  <path class="cls-4" d="M33.21,9.05c-.08-.23-.15-.46-.23-.69.24.16.34.38.23.69Z"/>
  <path class="cls-73" d="M32.44,10.4c.14-.36.29-.53.53-.78,0,.4-.19.56-.53.78Z"/>
</svg>