<?xml version="1.0" encoding="UTF-8"?>
<svg id="Layer_1" data-name="Layer 1" xmlns="http://www.w3.org/2000/svg" viewBox="0 0 219.04 253.03">
  <defs>
    <style>
      .cls-1 {
        fill: #000;
      }

      .cls-1, .cls-2, .cls-3, .cls-4, .cls-5, .cls-6 {
        stroke-width: 0px;
      }

      .cls-2 {
        fill: #7f7f7f;
      }

      .cls-3 {
        fill: #fefefe;
      }

      .cls-4 {
        fill: #7e7e7e;
      }

      .cls-5 {
        fill: #050505;
      }

      .cls-6 {
        fill: #a3a3a3;
      }
    </style>
  </defs>
  <g>
    <path class="cls-5" d="M16.75,139.09c7.8-3.33,15.98-4.64,24.39-4.2,6.81.35,12.98-.76,18-5.82,1.19-1.2,2.72-2.07,4.13-3.03,3.67-2.51,4.42-5.1,2.32-9.05-.84-1.58-2.01-3.02-3.18-4.39-2.75-3.23-5.37-6.54-7.34-10.32-1.74-3.34-4.41-6-6.57-9.03-4.48-6.28-7.06-13.02-5.07-20.87,1.63-6.43,2.84-13.01,6.72-18.65,1.21-1.76,1.7-3.86,2.22-5.92.46-1.83,1.55-2.79,3.51-2.45,3.57.62,7.16,1.15,10.7,1.92,3.11.67,5.51,2.57,6.99,5.35,2.6,4.88,4.99,9.85,5.63,15.48.23,2.06.46,4.61,2.67,5.32,2.12.68,3.09-1.82,4.49-3,2.21-1.88,2.71-4.7,3.32-7.3.75-3.17,1.92-6.14,3.16-9.11,2-4.83,3.86-9.72,5.82-14.56,4.88-12.06,12.37-22.28,23.21-29.81,3.96-2.75,7.1-6.59,11.47-8.81,3.86-1.96,8.42-.26,9.83,3.84,1.09,3.19,1.66,6.68-.23,9.65-5.5,8.61-6.71,18.65-9.77,28.07-1.13,3.46-1.44,7.03-1.51,10.69-.09,4.87-2.67,9.22-3.48,13.97-.71,4.18-2.48,8.07-3.46,12.11-1.32,5.45.36,10.82,3.7,15.38,1.39,1.9,3.27.89,4.77-.3,4.78-3.8,8.8-8.35,12.1-13.42,11.51-17.69,27.66-29.22,47.27-36.33,1.86-.67,2.95-.2,3.49,1.58.71,2.31,1.02,4.61.75,7.11-.61,5.6-1.12,11.09-3.16,16.51-2.22,5.89-5.96,10.44-10.2,14.74-6.49,6.59-13.92,12.22-19.9,19.34-1.35,1.61-3.26,3.32-2.1,5.53,1.26,2.39,3.9,1.44,5.77.93,10.96-3.03,22.15-1.82,33.26-2.07,1.88-.04,3.62.6,5.15,1.54,4.94,3.05,9.92,6.06,12.52,11.69.77,1.67,1.27,3.31.5,4.92-2.76,5.81-5.29,11.84-11.71,14.81-1.43.66-2.71.99-4.32.62-6.79-1.57-13.73-1.88-20.67-2.05-2.77-.07-5.35.91-7.94,1.7-3.07.94-3.68,3.27-1.66,5.79,2.17,2.7,4.82,4.89,7.73,6.7,3.1,1.92,5.32,4.57,7.2,7.59,2.61,4.19,5.27,8.33,8.91,11.77,3.78,3.57,5.94,8.22,7.25,13.08,2.3,8.55,3.96,17.27,5.04,26.06.58,4.68.4,9.44-.9,14.08-1.5,5.31-5.47,9.33-12.32,6.95-4.67-1.62-8.86-3.78-12.35-7.29-3.41-3.43-6.88-6.8-10.37-10.14-6.54-6.28-10-14.56-14.29-22.26-2.4-4.31-5.2-8.08-9.19-11.02-2.42-1.79-4.76-3.75-6.87-5.9-2.69-2.75-5.91-3.22-9.44-2.86-1.68.17-2.83,1.2-3.18,2.81-.89,4.13-1.75,8.25-1.25,12.55.62,5.4,1.43,10.82,1.51,16.24.16,12.02-4.32,22.13-13.37,30.19-8.44,7.51-18.71,11.75-28.78,16.33-2.3,1.04-4.92,1.06-7.45.97-1.67-.06-2.53-.92-2.48-2.71.16-5.89-1-11.28-5.18-15.87-2.52-2.76-2.89-6.58-3.35-10.17-.19-1.49-.21-3-.65-4.46-1.2-3.97-.64-7.72,1.37-11.35,5.07-9.12,7.94-19.11,11.13-28.95,1.31-4.04.61-8.41.43-12.6-.12-2.73-3.04-3.94-5.82-2.68-3.48,1.59-6.79,3.52-10.02,5.6-11.83,7.61-24.92,9.4-37.95,5.16-9.64-3.13-18.91-8.02-26.49-15.3-1.58-1.52-1.48-2.86-.47-4.52,3.17-5.2,6.77-10.01,11.68-13.73,1.38-.89,2.91-1.5,4.33-2.33Z"/>
    <path class="cls-6" d="M16.75,139.09c-1.18,1.27-2.68,1.92-4.33,2.33,1.07-1.47,2.59-2.09,4.33-2.33Z"/>
    <path class="cls-3" d="M137.63,18.01c-4.77,11.17-7.75,22.83-9.48,34.82-1.04,7.2-2.73,14.36-5.52,20.95-2.47,5.83-2.31,11.04-.44,16.63.22.66.76,1.38.65,1.98-1.03,5.36,2.9,7.66,6.21,10.38.67.55,1.37.92,2.2.51.92-.45.8-1.31.65-2.12-.41-2.17.6-3.53,2.28-4.83,6.46-5,11.1-11.6,15.79-18.16,8.76-12.27,20.28-21.15,33.9-27.43,1.65-.76,3.3-1.52,4.97-2.21,3.6-1.48,4.9-.74,4.9,3.23,0,4.63-.66,9.2-1.81,13.72-1.7,6.68-5.48,12.06-10.34,16.71-4.36,4.17-8.76,8.3-13.28,12.31-3.36,2.98-6.27,6.51-9.17,9.96-1.34,1.6-2.15,3.61-2.23,5.84-.07,1.94.77,3.11,2.62,3.46,2.79.53,5.61.86,8.32-.35,4.05-1.81,8.29-2.28,12.67-2.24,4.22.04,8.44.06,12.67-.39,8.02-.86,14.15,3.18,19.36,8.6,2.28,2.37,2.92,5.53,1.45,9-1.21,2.86-3.03,5.2-4.89,7.56-.91,1.16-2.22,1.73-3.75,1.55-7.2-.86-14.48-.15-21.69-1.07-4.57-.58-9,1.07-13.17,2.6-4.56,1.68-4.85,5.24-1.45,9.74,2.28,2.64,4.64,5.18,7.97,6.54,3.08,2.06,5.25,4.93,7.28,7.97,2.01,3.02,3.81,6.29,6.33,8.82,5.9,5.9,8.91,13.02,10.36,21.03,1.13,6.24,2.58,12.42,3.51,18.68.67,4.48.61,9.05-.82,13.46-1.34,4.15-3.66,5.51-7.81,4.28-3.79-1.13-7.26-2.85-10.11-5.76-3.24-3.31-6.76-6.34-10.02-9.63-3.64-3.67-6.35-7.98-8.71-12.62-3.32-6.51-6.19-13.44-11.98-18.31-4.16-3.5-7.97-7.4-12.18-10.8-4.26-3.44-9.28-3.45-14.32-1.55-1.74.65-2.23,2.04-2.65,3.7-2.19,8.49-1.32,17.03-.31,25.52,1.8,15.17-3.57,26.99-15.87,35.83-7.05,5.07-15.04,8.36-22.9,11.85-3.66,1.63-4.59.98-5.21-2.95-.74-4.67-2.28-8.96-5.47-12.56-.95-1.08-1.56-2.35-1.9-3.74-1.11-4.52-1.29-9.16-1.76-13.76-.25-2.39,1.05-4.44,2.19-6.48,3.68-6.62,6.39-13.62,8.18-20.98.19-.78.28-1.63.67-2.31,3.6-6.22,2.65-12.88,1.73-19.44-.76-5.39-5.8-7.75-10.71-5.45-4.03,1.89-7.7,4.38-11.4,6.78-10.1,6.56-21.22,8.22-32.44,4.98-8.13-2.35-15.7-6.76-22.45-12.13-2.14-1.71-3.02-4.08-.97-6.61,4.72-5.8,9.45-11.1,17.69-12.5,6.79-1.15,13.47-2.12,20.35-1.89,4.6.16,8.8-1.95,13.22-2.84.93-.19,1.74-1.32,2.45-2.14,1.66-1.92,3.4-3.71,5.58-5.03,4.15-2.52,5.44-8.53,2.55-12.44-5.48-7.42-10.99-14.81-16.59-22.14-5.94-7.78-7.77-16.05-4.74-25.66,1.78-5.62,4.31-10.78,7-15.9,2.64-5.01,11.93-4.83,15.29.24,2.8,4.23,5.06,8.71,5.56,13.88.37,3.79,1.94,7.2,3.6,10.51,1.93,3.85,4.02,3.72,6.64.25,2.72-3.59,5.95-6.85,6.84-11.46,1.77-9.13,5.89-17.44,9.21-25.99,3.67-9.46,9.63-17.64,17.39-24.2,4.21-3.56,8.74-6.77,12.99-10.32,3.38-2.82,5.51-2.71,7.81-.22,2.17,4.83-.73,8.66-2.49,12.71Z"/>
    <path class="cls-4" d="M137.63,18.01c-.27-.75.09-1.4.45-1.96,2.13-3.32,2.73-6.91,2.04-10.75,1.55,1.9,1.28,4.15.71,6.18-.66,2.32-1.49,4.67-3.2,6.53Z"/>
    <path class="cls-2" d="M177.01,155.31c-3.61-1.02-6.21-3.26-7.97-6.54,2.66,2.18,5.31,4.36,7.97,6.54Z"/>
  </g>
  <g>
    <path class="cls-1" d="M101.33,113.88c1.65.07,2.44-.07,3.94-.21,2.28-.21,4.65-.07,6.93-.42,2.6-.42,5.28-.14,7.88-.42.31-.07.63,0,.79.14.32.28-.16.56-.47.7-1.02.56-1.34,1.19-1.73,2.17-.31.56-1.1.84-1.89.98-1.73.28-3.54.21-5.36.21-1.97,0-3.39.14-5.28.21-1.42.07-3.39.35-3.7.49.32,1.33.16,2.31.32,3.64.31,3.29.08,6.94.55,10.16.08.77.39.98,1.5.84,1.97-.21,3.39-.07,5.36-.14,2.21-.07,2.99-.28,3.62.35-.63.56-1.97,1.05-2.6,1.26-.94.35-1.81.56-1.26.77.79.28.87.7-.16.98-1.34.35-2.13.35-2.83.35-.63,0-1.58.28-2.44.42-.32.07-.87.07-.87.21,0,2.59.24,6.73.71,9.32.24,1.4-.08,2.8.08,4.27.24,1.89.08,3.85.63,5.68.24.63.24,1.33.08,1.96-.16.7-.16,1.33-.16,1.96.08,1.12-.24,2.24-.32,3.36-.08.91-.87.56-1.42.84-.47.77-.87.49-1.26-.35.32-.42.08-4.27-.55-4.27-.47,0,.08,2.1-.39,3.01s-3.31.42-4.25.07c-1.1-.42-1.34-.63-1.34-2.59,0-2.1-.08-4.27,0-6.45.08-2.38-.16-4.69-.24-7.08-.16-2.73.39-6.31.24-9.04-.08-1.19-1.42-.91-1.73-1.19-.47-.28-.24-1.26-.79-1.61-.55-.35-.08-.7.55-.98.39-.14,1.42-.28,1.73-.49,0-3.22,0-5.82-.08-9.04-.08-3.36-.55-6.38-.63-9.67,0-.63.16-1.05.79-1.26.47-.21,1.02-.35,1.26.35.16.42.32.28.87.49-.24-1.47.71-1.26,1.65-1.68.55.56,2.13.91,2.28,1.68ZM112.04,134.2c-.39.14-1.02.35-.87.77.08.42.79.07,1.18,0,.32-.14.39-.21.71-.7-.39-.14-.71-.07-1.02-.07Z"/>
    <path class="cls-1" d="M126.92,113.25c.08.14.24.28.47.28,1.26-.28,2.52.14,3.78.07,2.36-.07,4.72-.28,7.01,0,2.68.21,5.35.35,7.64,1.82,1.18.77,2.28,1.68,3.23,2.73.87.98.95,2.03,1.5,3.01.08.21,0,.49.08.7.31,1.26.24,3.01.39,4.55.16,1.61.24,3.29-.39,4.9l-.55.91c-1.26,1.96-1.81,3.36-3.15,3.99-1.42.63-2.6,1.54-3.86,2.31-.24.14-.47.35-.79.42-2.44.91-4.57,2.31-6.85,3.5l-1.02.49c-1.58.7-1.65,1.4-1.65,1.68l-.08,1.4c.47,2.59-.24,5.18.08,7.71.16,1.05-.31,2.45-.31,3.43,0,1.68.08,3.29.47,4.9.08.35.16.63,0,.91-.08.49-.39.77-.95.56-1.34-.42-3.86.49-4.88-1.75-.24-.63-.08-2.45-.39-2.66-.39-.21-.55,3.22-.87,3.22-1.34,0-2.13-.56-2.21-1.75-.08-.91-.16-1.75,0-2.66.24-1.96,0-4.27,0-6.24v-3.71c0-.56-.24-.84-1.02-.7-.79.21-1.02-.14-.79-.77.24-.42.55-.98.95-.98,1.02-.14.79-.7.79-1.26-.16-3.43-.47-6.8-.55-10.23-.08-3.36-.08-6.66,0-10.02,0-1.89.32-3.71.47-5.61.08-.84,0-1.75-.08-2.59-.08-.42,0-.7-.08-.98-.08-.28-1.42-.42-1.5-.7.16-.49,1.34-.42,1.5-1.05.08-.35.87-.7,1.26-.56.71.35,1.73,0,2.36.7ZM131.1,115.63c.16.91.55,1.82.47,2.8-.08.91,0,1.89,0,2.87-.08,2.94-.16,5.96.24,8.9.24,1.96,0,3.99.47,5.96.16,1.05.31,2.1.31,3.15,0,.35,0,.84.32,1.26.31-.21.47-.35.63-.49.95-1.19,2.6-1.54,3.78-2.66.63-.56,1.57-.98,1.97-1.68,1.1-2.03,2.05-4.06,2.52-6.31.08-.49.32-.7.79-.77,0,.98-.32,2.17-1.02,3.85-.08.28,0,.28,0,.42.79,0,2.76-4.62,2.05-6.73,0-.07-.08-.14-.24-.14-.24.14-.24.49-.55.77-.47-.42-.31-.84-.24-1.26.24-.84.24-1.12.31-1.89.08-.56,0-1.47-.16-2.03-.08-.42-.16-.98-.47-1.4-.71-1.19-1.26-2.45-2.36-3.5-.47-.49-1.02-.91-1.89-1.12-2.21-.56-4.49-.07-6.69-.21-.08,0-.16.07-.24.21Z"/>
  </g>
</svg>