<?xml version="1.0" encoding="UTF-8"?>
<svg id="Layer_1" data-name="Layer 1" xmlns="http://www.w3.org/2000/svg" viewBox="0 0 146.72 107.99">
  <defs>
    <style>
      .cls-1 {
        fill: #000;
        stroke-width: 0px;
      }
    </style>
  </defs>
  <path class="cls-1" d="M119.71,3.09c5.76-.32,12.5-.07,16.95,4.13,4.22,3.98,4.94,10.09,5.04,15.59.13,7.01-.25,13.98.21,20.99.49,7.47,1.96,14.93,1.8,22.44s-2.19,14.87-4.26,22.06c-.87,3.03-1.58,6.29-4.42,8.1s-6.19,2.34-9.28,3.14c-7.36,1.9-14.8,3.61-22.36,4.51s-14.91,1.02-22.38.9-15.3-.18-22.85-1.01-14.2-3.72-21.56-4.18c-3.44-.21-6.92-.08-10.28-.98-2.78-.75-5.36-2.07-7.68-3.76-4.73-3.45-8.27-8.47-10.54-13.81-2.75-6.46-3.87-13.5-4.43-20.45s-.79-14.17-.6-21.24.93-13.9,2.89-20.58c.51-1.73,1.06-3.46,1.76-5.12s1.56-2.31,3.36-2.38c3.57-.15,7.17,0,10.75.05,14.81.22,29.78.7,44.38-2.24,1.71-.34,3.41-.83,5.14-1.08,1.99-.29,3.97-.58,5.96-.84,3.76-.5,7.52-.96,11.28-1.37,7.7-.84,15.42-1.48,23.14-1.93,3.78-.22,7.57-.39,11.35-.52,1.93-.07,1.93-3.07,0-3-16.27.56-32.5,1.96-48.63,4.21-1.78.25-3.6.44-5.35.82-2.01.44-4,.9-6.02,1.26-3.9.69-7.84,1.12-11.79,1.41-7.75.55-15.52.5-23.28.38-3.81-.06-7.62-.13-11.44-.16-1.83-.01-3.68-.07-5.51.01-1.64.07-3.31.39-4.52,1.59s-1.67,2.78-2.22,4.26c-.63,1.69-1.17,3.41-1.64,5.15-.97,3.61-1.6,7.31-2.02,11.02-.84,7.38-.75,14.84-.46,22.25s.76,14.58,2.5,21.66c2.94,12,10.7,24.49,23.53,27.48,3.71.86,7.52.66,11.29.97s7.31,1.37,10.91,2.3c7.66,1.98,15.43,2.29,23.3,2.56s15.93.49,23.89.03,15.85-1.72,23.63-3.51c3.78-.87,7.56-1.81,11.3-2.84,2.98-.82,6.16-1.9,8.28-4.29,2.28-2.58,2.99-6.16,3.91-9.37,1.09-3.84,2.13-7.69,2.87-11.62s1.14-7.53,1.11-11.33c-.03-4.07-.53-8.12-.99-12.16-.9-7.92-1.28-15.85-1.09-23.82.15-5.93.37-12.24-1.93-17.83s-7.54-9.39-13.7-10.46c-3.07-.53-6.19-.59-9.3-.42-1.92.11-1.93,3.11,0,3h0Z"/>
  <path class="cls-1" d="M4.9,14.42c.05,4.26,2.89,7.55,5.64,10.51,3.16,3.39,6.55,6.55,10.03,9.62,6.52,5.74,13.19,11.35,20.2,16.49s14.08,9.51,21.92,12.8c1.97.83,3.97,1.58,6,2.23s4.25,1.54,6.32.68c1.95-.81,3.51-2.68,5.04-4.07,1.77-1.61,3.55-3.22,5.32-4.84,4.1-3.72,8.19-7.45,12.29-11.17,1.04-.94,2.08-1.89,3.12-2.83.81-.74,1.74-1.65,1.38-2.87-.63-2.16-3.99-1.3-3.48.95.27,1.19,1.69,1.33,2.51.66,12.9-10.62,25.75-21.29,38.55-32.03,1.48-1.24-.65-3.36-2.12-2.12-12.8,10.74-25.65,21.42-38.55,32.03l2.51.66-.04-.16-.39,1.46h-1.5c-.15-.35-.29-.7-.44-1.06,0-.31-.58.38-.74.52-.37.33-.73.67-1.1,1-.86.78-1.71,1.56-2.57,2.33-1.59,1.45-3.18,2.89-4.77,4.34-3.12,2.83-6.24,5.67-9.36,8.5-1.59,1.45-3.18,2.89-4.77,4.34-.6.54-1.27,1.33-2.04,1.61-.95.34-2.03-.1-2.95-.38-3.56-1.07-7.02-2.42-10.38-4.01-13.47-6.4-25.08-16.12-36.28-25.82-3.38-2.93-6.71-5.94-9.84-9.15-2.68-2.74-6.47-6.09-6.52-10.23-.02-1.93-3.02-1.93-3,0h0Z"/>
  <path class="cls-1" d="M1.76,71.51c.68,8.19-1.81,16.75.82,24.75.59,1.81,1.41,3.6,2.66,5.05s3.14,2.21,5.07,2.54c4.41.74,8.86.39,13.27-.1,5.06-.57,10.13-1.26,15.21-.62,1.91.24,1.89-2.76,0-3-8.26-1.05-16.4,1.5-24.65,1.12-1.82-.08-4.04-.14-5.65-1.09-1.5-.88-2.32-2.74-2.88-4.31-1.27-3.56-1.32-7.36-1.17-11.1.19-4.42.69-8.83.32-13.26-.16-1.91-3.16-1.93-3,0h0Z"/>
  <path class="cls-1" d="M69.33,51.19c.3-.66.69-1.39,1.12-1.86.51-.55.97-.84,1.65-1.02.22-.06.05-.04.3-.04,0,0,.44.02.3,0,.4.06.44.08.76.33-.18-.14.14.15.16.17.19.19.02-.05.12.18.08.16.09.18.03.05.03.1.06.19.08.29-.03-.23-.03.29-.03.29.03-.14-.11.31-.11.3,0,.02-.14.29-.2.39-.15.26-.42.66-.55.82-.47.62-.99,1.19-1.5,1.78-1.09,1.25-2.18,2.55-2.85,4.08-.33.74-.22,1.61.54,2.05.64.37,1.72.21,2.05-.54.61-1.39,1.48-2.43,2.44-3.54,1.04-1.2,2.2-2.41,2.82-3.89.68-1.64.33-3.53-1.07-4.69s-3.15-1.34-4.77-.7c-1.83.73-3.09,2.27-3.89,4.03-.33.74-.21,1.61.54,2.05.64.38,1.72.2,2.05-.54h0Z"/>
  <path class="cls-1" d="M68.41,49.5c-.89-1.61-2.21-2.98-3.79-3.93-.93-.55-1.96-.95-3.05-.74-1.02.2-1.82.9-2.42,1.7-1.32,1.74-1.58,4-.17,5.77,1.17,1.47,2.67,2.79,4.06,4.05,1.63,1.47,3.37,2.83,5.31,3.87,1.7.92,3.22-1.67,1.51-2.59s-3.2-2.05-4.62-3.33c-.71-.63-1.39-1.29-2.06-1.96s-1.42-1.27-1.95-2c-.38-.52-.23-1.08.07-1.63.15-.28.36-.6.59-.78s.24-.2.48-.14c1.48.42,2.74,1.93,3.46,3.22.94,1.69,3.53.18,2.59-1.51h0Z"/>
</svg>