<?xml version="1.0" encoding="UTF-8"?>
<svg id="Layer_1" data-name="Layer 1" xmlns="http://www.w3.org/2000/svg" viewBox="0 0 45 31.9">
  <defs>
    <style>
      .cls-1 {
        fill: #dcdbdb;
      }

      .cls-1, .cls-2, .cls-3, .cls-4, .cls-5, .cls-6, .cls-7, .cls-8, .cls-9, .cls-10, .cls-11, .cls-12, .cls-13, .cls-14, .cls-15, .cls-16, .cls-17, .cls-18, .cls-19, .cls-20, .cls-21, .cls-22, .cls-23, .cls-24, .cls-25, .cls-26, .cls-27, .cls-28, .cls-29, .cls-30, .cls-31, .cls-32, .cls-33, .cls-34, .cls-35, .cls-36, .cls-37, .cls-38, .cls-39, .cls-40, .cls-41, .cls-42, .cls-43, .cls-44, .cls-45, .cls-46, .cls-47, .cls-48, .cls-49, .cls-50, .cls-51, .cls-52, .cls-53, .cls-54, .cls-55, .cls-56, .cls-57, .cls-58, .cls-59, .cls-60, .cls-61 {
        stroke-width: 0px;
      }

      .cls-2 {
        fill: #666465;
      }

      .cls-3 {
        fill: #dddbdc;
      }

      .cls-4 {
        fill: #282626;
      }

      .cls-5 {
        fill: #6c6a6a;
      }

      .cls-6 {
        fill: #b2b1b1;
      }

      .cls-7 {
        fill: #2b2a2a;
      }

      .cls-8 {
        fill: #323131;
      }

      .cls-9 {
        fill: #bbb9ba;
      }

      .cls-10 {
        fill: #e3e2e2;
      }

      .cls-11 {
        fill: #383737;
      }

      .cls-12 {
        fill: #fdfcfc;
      }

      .cls-13 {
        fill: #171516;
      }

      .cls-14 {
        fill: #c8c6c6;
      }

      .cls-15 {
        fill: #b1b0b0;
      }

      .cls-16 {
        fill: #312f30;
      }

      .cls-17 {
        fill: #7e7c7d;
      }

      .cls-18 {
        fill: #393838;
      }

      .cls-19 {
        fill: #181617;
      }

      .cls-20 {
        fill: #676566;
      }

      .cls-21 {
        fill: #767474;
      }

      .cls-22 {
        fill: #1a1819;
      }

      .cls-23 {
        fill: #444343;
      }

      .cls-24 {
        fill: #a7a6a6;
      }

      .cls-25 {
        fill: #575556;
      }

      .cls-26 {
        fill: #2a2929;
      }

      .cls-27 {
        fill: #232122;
      }

      .cls-28 {
        fill: #373535;
      }

      .cls-29 {
        fill: #8c8b8b;
      }

      .cls-30 {
        fill: #a3a1a2;
      }

      .cls-31 {
        fill: #b8b6b7;
      }

      .cls-32 {
        fill: #1a1818;
      }

      .cls-33 {
        fill: #b6b5b5;
      }

      .cls-34 {
        fill: #9c9a9a;
      }

      .cls-35 {
        fill: #252324;
      }

      .cls-36 {
        fill: #181717;
      }

      .cls-37 {
        fill: #464445;
      }

      .cls-38 {
        fill: #151314;
      }

      .cls-39 {
        fill: #727071;
      }

      .cls-40 {
        fill: #575656;
      }

      .cls-41 {
        fill: #bbbaba;
      }

      .cls-42 {
        fill: #2d2b2c;
      }

      .cls-43 {
        fill: #e3e1e2;
      }

      .cls-44 {
        fill: #615f5f;
      }

      .cls-45 {
        fill: #b9b8b8;
      }

      .cls-46 {
        fill: #f7f5f6;
      }

      .cls-47 {
        fill: #bfbdbe;
      }

      .cls-48 {
        fill: #979596;
      }

      .cls-49 {
        fill: #9c9a9b;
      }

      .cls-50 {
        fill: #2c2a2a;
      }

      .cls-51 {
        fill: #525051;
      }

      .cls-52 {
        fill: #565455;
      }

      .cls-53 {
        fill: #c1bfc0;
      }

      .cls-54 {
        fill: #d2d0d1;
      }

      .cls-55 {
        fill: #989697;
      }

      .cls-56 {
        fill: #262425;
      }

      .cls-57 {
        fill: #4f4e4e;
      }

      .cls-58 {
        fill: #5a5959;
      }

      .cls-59 {
        fill: #9b999a;
      }

      .cls-60 {
        fill: #3c3a3b;
      }

      .cls-61 {
        fill: #161415;
      }
    </style>
  </defs>
  <path class="cls-44" d="M.28,27.36c-.45-3.24-.28-6.49-.08-9.73.08-1.25-.1-2.53.3-3.76.25,1.08.05,2.17.13,3.25-.11-1.15.14-2.3-.12-3.44.06-4.28.03-8.56-.08-12.84,0-.19.13-.21.28-.18.12.12.17.28.24.43.13.31-.1.88.7.67.41-.11.74.76,1.38.65.5.1.83.48,1.18.78,1.61,1.37,3.24,2.73,4.79,4.18.13.12.22.26.24.44-.11.19-.49.32-.16.63.56.79,1.19,1.49,2.15,1.78.25-.15.52-.13.79-.13,1.42.92,2.57,2.15,3.76,3.33.61.61,1.22,1.2,1.82,1.83.25.26.6.49.48.95-.41.36-.8.44-1.14-.09-.45-.87-1.17-1.54-1.87-2.17-.93-.84-1.67-1.9-2.84-2.47-.29-.18-.57-.22-.86,0-.25,0-.49-.11-.65-.28-1.09-1.08-2.46-1.86-3.29-3.21.15-.61-.56-.77-.66-1.25-.41-.88-1.3-1.27-1.98-1.87-.46-.4-.94-.78-1.34-1.25-.09-.1-.13-.24-.27-.29.04.11.05.22-.04.31-.21.15-.44.22-.7.2-.31-.01-.47-.36-.82-.38.2,1.17.25,2.33.07,3.49-.18.39.03.94-.49,1.18-.46-1.1-.04-2.25-.24-3.5.13,4.58.5,9.03,0,13.5.2-.46-.2-1.01.27-1.39.4.2.37.63.52.97.15.92.17,1.86.05,2.77-.23,1.71-.17,3.43-.15,5.15,0,1.07-.17,2.12-.24,3.18-.02.31-.07.62-.38.8-.5-.2-.42-.67-.42-1.05,0-.82-.1-1.63-.16-2.41,0,.39.19.83-.2,1.2Z"/>
  <path class="cls-42" d="M38.94,31.47c-1.72.25-3.43.45-5.17.12-1.22-.23-2.44.15-3.66.1-2.22.17-4.41.02-6.61-.33-.91-.14-1.85.03-2.78-.05-1.17-.32-2.36-.14-3.54-.19-.9-.04-1.82-.05-2.65-.5.13-.55.6-.47.98-.48,1.04-.04,2.09,0,3.13-.03,2.53.05,5.05.14,7.58.31,2.56.18,5.13.14,7.7,0,1.87-.11,3.75-.38,5.62-.01.56.34.68.65-.06.9-.18.06-.4-.02-.56.16Z"/>
  <path class="cls-25" d="M20.72,31.06c1.1.12,2.23-.3,3.33.3.26.14.94-.3,1.36-.12,1.53.66,3.14.28,4.7.44-1.98.19-3.95.34-5.93.02-.3-.05-.61-.1-.92-.09-3.23.06-6.46-.09-9.69-.2-.76-.21-1.55.06-2.31-.15-1.65-.08-3.3-.16-4.95-.24-.53-.19-1.07-.12-1.61-.03-.65.11-1.08-.09-1.17-.79-.05-.79.61-1.17.99-1.72.25-.36.54-.7.83-1.03.43-.34.19-1.29,1.1-1.2.21.01.41.06.54.25.07.55-.29.9-.62,1.24-.55.57-1.04,1.19-1.62,1.95.7.02,1.27-.17,1.85-.19,1.93-.07,3.84.31,5.77.24.3-.01.8-.08.71.53-.51.06-1.01,0-1.52.04.72-.05,1.46.16,2.12-.33,1.42-.2,2.84-.1,4.26-.07.33,0,.69.05.82.46-1.03.01-2.05.02-3.08.05-.37,0-.76-.1-1.09.16-1.12.54-2.25.12-3.38.14,3.17.08,6.34.38,9.52.33Z"/>
  <path class="cls-57" d="M27.57.06h4.75c-.12.56-.59.43-.96.46-.56.05-1.13-.06-1.68.13-.24.06-.48.08-.73.04-.73-.06-1.46-.02-2.18-.03-1.06-.05-2.11.07-3.1.12.78.02,1.61-.17,2.45-.12.62,0,1.23,0,1.84,0,.31.02.65-.06.88.24-.17.52-.62.43-1.01.45-.5.03-1.01,0-1.52.03-3.04,0-6.08.14-9.1.57-.93.13-1.91.24-2.83-.17-.16-.15-.17-.32-.1-.51,1.23-.56,2.54-.33,3.6-.41-2.17-.04-4.54.25-6.93.29-2.16.07-4.33-.15-6.49.13-1.01.18-2-.17-3.01-.17-.25,0-.56-.07-.55-.45,7.27-.11,14.53-.41,21.8-.38.75,0,1.5-.21,2.25-.05.85-.24,1.74.06,2.59-.17Z"/>
  <path class="cls-50" d="M44.72,7.48c.67,6.34-.04,12.67-.2,19.01-.24.1-.38-.03-.49-.21-.15-.38-.17-.78-.09-1.17-.16.61.07,1.16.29,1.71-.09.42-.23.77-.76.7-.5-.72-.37-1.54-.24-2.29.61-3.46.59-6.95.56-10.44-.2-1.88.53-3.7.43-5.58-.02-.38.03-.76-.21-1.08-.13-.41-.21-.8.34-.96.2.01.28.17.37.31Z"/>
  <path class="cls-27" d="M44.52,7.27c-.56.06-.39.5-.42.82.23.33.29.63-.12.87-.6-.46-.54-1.16-.56-1.79-.03-1.4-.1-2.81.15-4.21-.38-.14-.5.22-.74.3-.24.13-.52.3-.74.08-.23-.23.01-.5.12-.73.08-.11-.01.03.05-.09.17-.34.72-.6.46-1.03-.21-.34-.69-.13-1.06-.15-.17,0-.34.01-.51.01-.53,0-1.07.03-1.59-.01-.35-.03-.76.03-.86-.48.49-.38,1.06-.14,1.6-.21.4,0,.8.17,1.13.1-.68-.05-1.43-.15-2.2-.11-.87-.05-1.78.39-2.6-.23.04-.28.25-.29.46-.28,1.39.03,2.79-.08,4.18.06,1.01.05,2.02.12,3.03.14.81.02.42.57.45.94-.28,1.21-.06,2.43-.13,3.65-.05.78.11,1.56-.09,2.34Z"/>
  <path class="cls-4" d="M3.6,30c.19.78.73.9,1.44.85.41-.03.89-.18,1.26.18-1.61.07-3.23.12-4.84.23-.66.04-.86-.19-.99-.83-.22-1.03-.18-2.05-.18-3.08.04-.5.07-1,.12-1.71.72,1.4.45,2.72.56,3.99.66-.07.88-.68,1.26-1.08.46-.48.77-1.17,1.59-1.17.15.05.25.14.28.3-.32.77-1.07,1.17-1.55,1.8-.18.22-.31.44.03.63.36.11.67-.24,1.03-.11Z"/>
  <path class="cls-35" d="M.93.67c1.16.26,2.35.34,3.54.39.18-.12.36-.07.55-.02,2.62.07,5.24.02,7.85.03.51-.06,1.05-.23,1.49.22v.39c-.42.42-.96.31-1.46.31-3.05.01-6.11,0-9.16,0-.38,0-.91-.16-.76.57-.62.36-.81-.24-1.15-.5-.12-.09-.22-.33-.4-.17-.08.07-.01.29-.01.47-.7-.4-.79-1.02-.69-1.72.07,0,.14.01.21.02Z"/>
  <path class="cls-51" d="M38.94,31.47c.15-.41,1.06-.07.83-.85.51-.41,1.11-.19,1.67-.25.37-.04.74-.04,1.16-.26-.97-.91-2.15-1.55-2.91-2.63-.03-.33-.14-.67.04-.99.44-.14.6.17.75.48.69.91,1.49,1.68,2.63,2.02.07-.06.14-.11.22-.16.17-.1.35-.17.55-.15.79.49.9.91.37,1.45-.18-.03-.31-.12-.38-.27-.31.52.67.54.42,1.05-.34.21-.71.1-1.07.13.39-.03.79.08,1.17-.11.17-.11.34-.2.54-.1-.03.75-.6.73-1.1.73-1.62-.01-3.25-.06-4.87-.09Z"/>
  <path class="cls-52" d="M41.26.21c-1.18.01-2.36.02-3.53.04-.36,0-.75-.12-1.06.18-.28.33-.67.32-1.04.32-1.65,0-3.3,0-4.95,0-.38,0-.76,0-1.04-.34.85-.47,1.84.13,2.68-.36,2.98-.01,5.97-.2,8.94.15Z"/>
  <path class="cls-56" d="M44.1,30c.48-.47.4-.71-.41-1.24-.34-.39-.33-.78-.03-1.18-.01-.38.5-.54.4-.96-.07-.12-.08-.24.05-.33l.41.2.02-.02c.14.37.04.72-.07,1.09-.13.42-.17.88.24,1.21,0,.48,0,.96,0,1.45-.28.16-.54.26-.6-.21Z"/>
  <path class="cls-5" d="M44.52,7.27c0-1.64-.02-3.29-.02-4.93,0-.36-.1-.76.24-1.06,0,2.06-.02,4.13-.03,6.19-.07-.07-.13-.14-.2-.21Z"/>
  <path class="cls-51" d="M44.71,28.77c-1.02-.07-.68-.83-.5-1.26.14-.34.24-.68.33-1.04.2.76.26,1.52.17,2.3Z"/>
  <path class="cls-38" d="M44.1,30c.14.25.38.2.6.21.11.19.37.33.21.61-.14.07-.27.14-.41.21-.08-.06-.2-.09-.18-.23-.91-.08-.82-.69-.66-1.35.29.04.28.37.44.54Z"/>
  <path class="cls-19" d="M.52,13.68c.45,1.23.11,2.48.14,3.71-.34-1.17,0-2.35-.15-3.52-.02-.06-.01-.13.01-.19Z"/>
  <path class="cls-52" d="M27.57.06c-.84.38-1.73.11-2.59.17.85-.24,1.72-.21,2.59-.17Z"/>
  <path class="cls-31" d="M11.25,31.27c.78-.05,1.55-.09,2.31.15-.78.05-1.55.13-2.31-.15Z"/>
  <path class="cls-12" d="M2.98,2.57c-.43-.13-.49-.59-.96-.94,4.25-.16,8.29.26,12.34.04,1.65.11,3.27-.11,4.91-.32,2.32-.29,4.65-.2,6.98-.25.95.09,1.9.15,2.85-.06.68-.15,1.36.09,2.03.1,1.91.03,3.83.22,5.73-.12.86-.15,1.7.13,2.54.14.68,0,1.37.11,2.04-.07.24,0,.48-.01.71.03.37.07.91-.25,1.07.22.12.36-.22.74-.53,1.01-.1.09-.18.2-.26.3-.35.3-.59.69-.9,1.03-.71.74-1.61,1.28-2.27,2.07-1.55,1.62-3.24,3.08-4.94,4.54-1.89,1.9-4.02,3.52-6.01,5.31-.4.24-.72.57-1.06.89-.34.27-.7.5-1.07.73-.58.33-1.19.58-1.81.81-1.56.73-3.09.56-4.61-.13-.48-.35-.92-.75-1.35-1.16-.16-.17-.4-.29-.36-.58-1.86-2.2-3.93-4.19-6.16-6.01-1.14-.47-1.97-1.31-2.72-2.26-1.93-1.93-4.04-3.65-6.18-5.33Z"/>
  <path class="cls-12" d="M3.78,27.47c-.99.52-1.5,1.52-2.28,2.25-.24.23-.46.54-.53-.1.11-.92.3-1.83.33-2.75.11-3.09.17-6.18.25-9.28-.35-.94-.11-1.89-.08-2.84.08-2.47-.12-4.94-.02-7.4,0-.17,0-.34.09-.5.14-1.34-.13-2.66-.17-4.04.56.17.71.78,1.19.96,1.45.65,2.48,1.87,3.71,2.82.47.36,1.02.69,1.23,1.31,1.22,1.27,2.57,2.41,3.93,3.53.65.11,1.12.53,1.5,1,1.15,1.41,2.46,2.62,3.96,3.64.37.41.14.73-.17,1.03-1.09.79-2.15,1.63-3.33,2.28-2.29,1.64-4.35,3.55-6.32,5.55-.81.85-1.73,1.57-2.64,2.31-.2.14-.42.18-.65.22Z"/>
  <path class="cls-47" d="M1.32,16.74c-.3.72-.06,1.5-.33,2.52V4.41c.26,1.23.03,2.5.33,3.73.27.71.26,1.46.23,2.2-.09,2.13.24,4.28-.23,6.4Z"/>
  <path class="cls-28" d="M16.81,16.21c-1.48-.77-2.7-1.85-3.65-3.21-.46-.66-1.27-.91-1.72-1.56.25-.77.56-.35.87-.05,1.08.63,1.8,1.65,2.69,2.49.68.65,1.56,1.14,1.95,2.07,0,.11-.04.19-.13.25Z"/>
  <path class="cls-23" d="M1.32,16.74c0-2.87,0-5.73,0-8.6.15-.41-.12-.9.23-1.28.22,3.58.24,7.16,0,10.74-.29-.23-.13-.58-.23-.86Z"/>
  <path class="cls-27" d="M7.51,7.92c-1.65-1.38-3.3-2.75-4.95-4.13.15-.22.37-.21.6-.21,1.42.83,2.61,1.93,3.75,3.1.24.22.48.45.74.66.35.29.13.43-.13.58Z"/>
  <path class="cls-3" d="M16.85,15.91c-1.5-1.51-3.2-2.84-4.54-4.51.08-.06,0-.37.22-.19,1.61,1.41,3.19,2.86,4.58,4.5.08.09.04.19-.06.25-.09.08-.16.07-.19-.06Z"/>
  <path class="cls-18" d="M9.17,7.9c1,.64,1.85,1.46,2.72,2.26-.22.08-.44.17-.66.25-.86-.51-1.63-1.11-2.23-1.91-.06-.28-.65-.22-.45-.62.14-.27.41.07.62.02Z"/>
  <path class="cls-36" d="M16.85,15.91c.07,0,.13.01.19.06.23.59.67.14,1.01.21.14.14.29.29.43.43.31.41.92.86-.16,1.04-.37.02-.73.12-1.1.08-.35-.16-.7-.32-.62-.8.18-.21.52-.36.22-.71l.04-.3Z"/>
  <path class="cls-48" d="M.7,25.02c-.65-.71-.33-1.57-.35-2.36-.02-1.26.28-2.51.14-3.78.09,0,.18,0,.27,0v3.49c.22.89.33,1.78-.07,2.65Z"/>
  <path class="cls-33" d="M6.91,6.68c-1.25-1.03-2.5-2.07-3.75-3.1.12-.08-.09-.5.13-.31,1.24,1.11,2.67,1.99,3.75,3.28,0,0-.08.08-.13.13Z"/>
  <path class="cls-16" d="M.7,25.02c.02-.88.05-1.77.07-2.65.08-.15.16-.3.31-.58v3.69c-.37-.03-.3-.29-.38-.46Z"/>
  <path class="cls-59" d="M8.99,8.5c.74.64,1.49,1.27,2.23,1.91,0,.11.1.36.02.3-.81-.67-1.86-1.11-2.26-2.21Z"/>
  <path class="cls-12" d="M17.3,17.64c.27-.22.58-.28.91-.2.43.15.88.25,1.29.47,1.72.78,3.49.65,5.27.3.9-.19,1.73-.55,2.52-1.01.38-.22.74-.49,1.22-.33,2.21,1.97,4.21,4.16,6.56,5.98,1.34,1.15,2.72,2.25,3.97,3.51.28.29.63.53.71.97,1.05,1.1,2.28,1.99,3.69,2.96-1.34.35-2.51.25-3.67.33-1.47-.2-2.94-.06-4.41.04-4.18.29-8.34.27-12.51-.14-1.36-.13-2.73-.09-4.1-.13-1.73-.29-3.48-.1-5.22-.17-.14.11-.26.14-.37-.04-2.86-.29-5.72-.59-8.59-.13-.12.02-.25.03-.5.07,1-1.27,1.93-2.45,2.85-3.62.01-.63.49-.94.9-1.29,1.43-1.22,2.86-2.43,4.34-3.58,1.32-.94,2.55-1.99,3.74-3.08.5-.24.79-.81,1.39-.9Z"/>
  <path class="cls-31" d="M20.72,31.06c-1.23.39-2.5.19-3.74.13-1.97-.1-3.95-.02-5.89-.6,1.17,0,2.33,0,3.5,0,1.6.19,3.21.25,4.83.26.45,0,.89.04,1.31.22Z"/>
  <path class="cls-7" d="M12.31,21.77c-1.76,1.62-3.82,2.89-5.39,4.72-.21,0-.41,0-.62,0-.12-.25.1-.33.14-.43-.4.19-.74.6-1.14.92-.25.2-.61.86-1.06.15.88-.77,1.76-1.54,2.64-2.32.45-.07.84-.27,1.16-.6,1.12-.76,2.19-1.58,3.1-2.59.2-.22.44-.42.79-.41.27.09.47.22.38.56Z"/>
  <path class="cls-39" d="M4.25,27.13c.54.27.76-.26,1.08-.47.54-.35,1.03-.77,1.66-1.06-.23.3-.46.6-.69.9-.41.19-.46.23-.36.42.25.45-.07.51-.35.61-.62.28-.95.87-1.4,1.33-.55.57-1.14,1.09-1.79,1.54-.36-.32-.58-.65-.08-1.03.71-.4,1.27-.97,1.68-1.67-.08-.07-.15-.14-.23-.21.1-.2.26-.3.47-.35Z"/>
  <path class="cls-10" d="M2.41,30.39c.9-1.13,1.86-2.21,3.18-2.87-.66.83-1.32,1.65-1.98,2.48-.36.25-.72.51-1.2.39Z"/>
  <path class="cls-54" d="M6.52,30.65h-1.84c1.25-.58,2.54-.45,4.14-.39-.56.17-.84.25-1.12.33-.38.25-.78.16-1.18.06Z"/>
  <path class="cls-22" d="M6.52,30.65c.39-.02.79-.04,1.18-.06.56.03,1.12.06,1.68.09-.96.12-1.92.35-2.87-.03Z"/>
  <path class="cls-13" d="M13.17,30.17c.12.01.24.03.37.04-.73.47-1.5.15-2.26-.04h1.9Z"/>
  <path class="cls-43" d="M29.64.42l7.03.02c.88.01,1.77.03,2.65.04.28.29.87-.28,1.03.37-.53.02-1.07.03-1.6.05-.63.35-1.35.23-2.01.27-2.65.17-5.31.33-7.94-.26-.26-.03-.52-.05-.78-.08.2-.54.71-.09,1.01-.33.2-.02.41-.05.61-.07Z"/>
  <path class="cls-20" d="M28.8.9c3.32.24,6.63.2,9.95,0,.88.33,1.81-.05,2.69.2-3.52.21-7.04.57-10.58.31-1.54-.11-3.08-.2-4.62-.29.84-.19,1.73.16,2.55-.21Z"/>
  <path class="cls-46" d="M14.36,1.29l-1.39-.05c-.61-.16-1.23-.01-1.84-.09-.12-.07-.14-.15-.06-.27,2.66-.2,5.33-.21,8.02.07-1.58.11-3.15.22-4.73.33Z"/>
  <path class="cls-15" d="M11.07.89c0,.06,0,.11,0,.17-2.07.23-4.14.15-6.21.04-.13-.01-.26-.02-.39-.03.49-.35,1.05-.19,1.58-.2,1.67-.01,3.34.01,5.02.03Z"/>
  <path class="cls-17" d="M26.19.82h-2.72c1.1-.23,2.19-.45,3.31-.32-.02.43-.43.16-.59.32Z"/>
  <path class="cls-9" d="M26.19.82c.2-.11.39-.21.59-.32.75,0,1.5,0,2.25,0-.34.11-.67.22-1.01.33-.61,0-1.22,0-1.83,0Z"/>
  <path class="cls-12" d="M43.66,27.58c.01.39.02.79.03,1.18-.08.17-.23.17-.39.16-.51-.02-.75-.44-1.06-.74-2.29-2.24-4.46-4.62-7-6.6-.32-.25-.65-.5-1.01-.69-1.46-1.29-3.02-2.47-4.48-3.75-.9-.79-.87-1.05-.03-1.89.12-.12.26-.22.41-.3.55-.23,1.01-.62,1.42-1.02,2.01-1.97,4.26-3.71,6-5.95,1.61-1.71,3.43-3.21,5.12-4.84.34-.36.68-.72,1.2-1.27-.07,2.52-.29,4.8,0,7.07.56.73.38,1.58.25,2.35-.18,1.15-.17,2.29-.04,3.43.07,3.45.16,6.9-.55,10.31-.18.83-.04,1.7.13,2.54Z"/>
  <path class="cls-5" d="M44.09,14.73c-.24-1.92-.26-3.85-.21-5.79.32-.22.19-.55.22-.84.2-.07.44-.16.41.19-.09,1.2.15,2.39-.3,3.61-.32.84-.1,1.89-.12,2.84Z"/>
  <path class="cls-55" d="M44.12,26.29c-.02.11-.03.22-.05.33-.42-.58-.54-1.18-.04-1.94.22.6.03,1.11.09,1.6Z"/>
  <path class="cls-11" d="M42.68,3.14c-.65,1.44-2.1,2.11-3.08,3.23-.56.64-1.24,1.17-1.87,1.75-.28.08-.58.11-.78.35-.64.59-1.23,1.23-1.85,1.84-.67.45-.72.44-.91-.14,1.65-1.52,3.3-3.04,4.95-4.56.49-.41,1.13-.58,1.59-1.03.32-.31.61-.62.64-1.09.35-.28.7-.56,1.04-.84.05.24-.36.35-.18.6.03.05.29-.08.45-.12Z"/>
  <path class="cls-20" d="M40.35.85c-.34-.12-.69-.24-1.03-.37.73-.12,1.41.03,2.15.29-.4.18-.76.17-1.12.08Z"/>
  <path class="cls-14" d="M4.01,27.69c.05.03.16.08.15.1-.19.56-1.29,1.5-1.83,1.58.56-.56,1.12-1.11,1.68-1.67Z"/>
  <path class="cls-57" d="M4.85,1.09c2.07-.01,4.14-.03,6.21-.04.63.08,1.29-.06,1.9.19-2.55,0-5.1.01-7.65,0-.16,0-.31-.1-.47-.16Z"/>
  <path class="cls-8" d="M34.38,20.74c1.3.61,2.28,1.64,3.29,2.59,1.92,1.82,3.76,3.72,5.63,5.59-.01.11-.03.22-.04.33-1.13-.33-1.76-1.29-2.57-2.03-1.21-1.54-2.83-2.66-4.26-3.97-.15-.13-.28-.29-.26-.28.02.01.16.24.36.39.89.74,1.76,1.51,2.65,2.26.28.24.61.47.57.92-.02.26.38.52,0,.79-1.58-1.44-3.17-2.88-4.75-4.33-.36-.33-.51-.83-.91-1.14-.12-.15-.21-.31-.2-.5.06-.29.19-.53.49-.62Z"/>
  <path class="cls-45" d="M39.75,26.54c-.94-1.23-2.31-1.99-3.34-3.12-.05-.12-.04-.22.04-.32,1.54,1.26,3.18,2.43,4.43,4.01-.15.13-.3.12-.45,0-.2-.22-.36-.5-.69-.57Z"/>
  <path class="cls-29" d="M40.44,27.1c.15,0,.3,0,.45,0,.76.75,1.44,1.58,2.38,2.13-.05.08-.09.16-.14.24-1.01-.67-2.14-1.19-2.69-2.38Z"/>
  <path class="cls-49" d="M44.32,30.81c.06.08.12.15.18.23-.62.28-1.23.29-1.97-.06.67-.23,1.24-.14,1.79-.17Z"/>
  <path class="cls-58" d="M36.87,8.3c.2-.46.52-.41.86-.18-2.24,2.6-4.62,5.06-7.46,7.01-.13-.13-.38-.04-.48-.25,0-.36.34-.49.51-.74-.57.53-.95,1.28-1.78,1.51-.1,0-.19,0-.28-.05-.03-.04-.06-.08-.08-.12,2.01-1.77,4.03-3.54,6.04-5.31.28.6.53.09.8-.02.78-.46,1.35-1.14,1.88-1.86Z"/>
  <path class="cls-32" d="M24.9,18.45c-1.91.41-3.8.54-5.63-.36-.08-.36-.11-.68.43-.48,1.56.65,3.13.92,4.73.16.33-.09.68-.17.85.23.15.35-.29.27-.39.44Z"/>
  <path class="cls-58" d="M24.9,18.45c.71-.82-.17-.54-.46-.67.57-.26,1.13-.53,1.7-.79.1.06.23.11.27.24.03.04-.09.24.08.11.21-.16.46-.28.59-.52.06-.16.09-.31.05-.48.28-.37.62-.64,1.03-.84.03.04.06.07.09.11.14.44.37.85.42,1.32-.03.04-.06.07-.09.11-.39-.21-.63.09-.9.26-.86.55-1.77.96-2.77,1.16Z"/>
  <path class="cls-2" d="M41.38,3.5c.39,1.05-.56,1.29-1.1,1.73-.29.24-.75.26-1.13.39.67-.79,1.45-1.45,2.23-2.12Z"/>
  <path class="cls-37" d="M19.7,17.61c-.31.01-.4.22-.43.48-.42-.11-.78-.3-1.05-.65,1.01,0,.18-.55.26-.83.41.33.82.67,1.23,1Z"/>
  <path class="cls-26" d="M26.35,17.21c-.07-.07-.15-.15-.22-.22.33-.22.66-.44.99-.66.21.1.27.28.25.5-.32.17-.59.47-1.01.38Z"/>
  <path class="cls-40" d="M8.11,24.36c-.3.44-.61.85-1.22.45,1.94-2.1,4.03-4.02,6.4-5.62.25.07.44.22.53.48.02.28-.2.4-.3.54.44-.35.87-.82,1.32-1.24.3-.28.59-.57,1.06-.47.09.04.16.1.21.19-1.17,1.14-2.4,2.2-3.78,3.08-.07-.23-.23-.37-.45-.45-.06-.18,0-.33.22-.6-1.34,1.35-2.72,2.42-3.97,3.64Z"/>
  <path class="cls-60" d="M16.09,18.69c-.12-.02-.24-.05-.36-.07,0-.22.14-.34.19-.39-.8.22-1.19,1.3-2.18,1.44-.23-.08-.36-.26-.45-.48,1.2-.61,2.2-1.52,3.31-2.27.24.24.47.48.71.72-.31.45-.71.81-1.21,1.05Z"/>
  <path class="cls-58" d="M34.2,21.74c.54.24.73.72.81,1.26-.73-.56-1.49-1.09-2.17-1.7-1.2-1.07-2.36-2.19-3.53-3.31-.29-.28-.62-.55-.73-.97.03-.03.07-.07.1-.1.39-.13.77-.05,1.04.21.62.61,1.38,1.08,1.89,1.8.7,1.09,1.74,1.86,2.59,2.81Z"/>
  <path class="cls-1" d="M8.11,24.36s-.07,0-.1,0c-.1,0-.14-.05-.07-.12.67-.63,1.34-1.27,2.03-1.88.84-.75,1.7-1.48,2.68-2.11-.26.36-.52.71-.78,1.07-1.15,1.14-2.29,2.29-3.75,3.04Z"/>
  <path class="cls-61" d="M31.53,19c-.95-.69-1.64-1.75-2.85-2.08-.34-.38-.82-.71-.43-1.33.06,0,.13-.03.18-.06.64.17.83-.66,1.41-.64.18.02.36.04.44.24-1.26,1.13-1.31,1.2.02,2.21,1.41,1.08,2.79,2.18,4.1,3.39-.15.22-.18.52-.47.63-.96-.62-1.73-1.43-2.39-2.36Z"/>
  <path class="cls-41" d="M36.87,8.3c-.38.87-.86,1.64-1.88,1.86.54-.71,1.18-1.31,1.88-1.86Z"/>
  <path class="cls-6" d="M31.53,19l2.39,2.36c.09.12.19.25.28.37-1.2-.51-1.89-1.61-2.8-2.46-.14-.13,0-.23.13-.28Z"/>
  <path class="cls-21" d="M36.45,23.1c-.01.11-.03.21-.04.32-.33-.26-.65-.52-.98-.79.51-.09.78.16,1.02.47Z"/>
  <path class="cls-24" d="M29.83,14.9c-.48.2-.6,1.18-1.41.64.94-.52,1.58-1.42,2.51-1.98-.24.55-.87.79-1.11,1.34Z"/>
  <path class="cls-34" d="M33.92,10.82c-.37.77-.88,1.41-1.76,1.64.59-.55,1.17-1.09,1.76-1.64Z"/>
  <path class="cls-30" d="M26.35,17.21c.35-.1.62-.4,1.01-.38-.28.65-.95.67-1.5.98-.02-.43.38-.38.49-.6Z"/>
  <path class="cls-53" d="M13.73,19.67c.9-.69,1.8-1.38,2.7-2.08.04.04.08.08.11.11-.27.3-.55.61-.82.91-.93.75-1.85,1.5-2.78,2.24-.04-.03-.08-.07-.13-.1.3-.36.6-.73.91-1.09Z"/>
</svg>