<?xml version="1.0" encoding="UTF-8"?>
<svg id="Layer_1" data-name="Layer 1" xmlns="http://www.w3.org/2000/svg" viewBox="0 0 472.83 439.32">
  <defs>
    <style>
      .cls-1 {
        fill: #030303;
      }

      .cls-1, .cls-2 {
        stroke-width: 0px;
      }

      .cls-2 {
        fill: #050505;
      }
    </style>
  </defs>
  <path class="cls-2" d="M222.84,142.84c-1.79,8.06-3.86,16.21-3.66,24.41.47,20.14-.32,40.27-.3,60.4.03,29.73,2.2,59.33,5.04,88.91,1.02,10.64-.16,21.42,1.16,32.1.1.79.29,1.57.44,2.36-2-.02-4-.05-6-.07-.55-10.87-1.16-21.73-1.65-32.6-.76-16.56-1.31-33.13-4.01-49.54-.24-1.44-.28-2.92-.28-4.38.08-26.01.18-52.02.26-78.03,0-.8-.15-1.6-.24-2.4.12-1.29.4-2.58.34-3.86-.86-20.88,5.27-40.8,8.38-61.15,2.34-15.34,7.85-29.39,13.18-43.69,4.15-11.16.43-22.19-1.68-33.13-1.04-5.41-2.93-10.66-4.38-15.99-.64-2.37-1.69-4.34-4.48-4.55-2.99-.22-3.2,2.24-3.96,4.18-1.54,3.94-2.94,7.95-4.79,11.74-.86,1.76-2.34,4.2-4.9,3.01-2.36-1.1-1.85-3.65-1.12-5.65,1.74-4.74,3.66-9.41,5.54-14.1,2.12-5.31,3.79-10.74,4.98-16.32C221.29,1.95,222.86-.06,225.86,0c3.01.06,3.52,2.3,4.05,4.68,1.5,6.71,5.59,12.15,9.9,17.29,2.63,3.13,3.49,5.92.79,9.06-3.21,3.73-2.77,7.51-1.37,11.83,5.44,16.74,3.86,33.05-4.19,48.68-3.01,5.85-4.37,12.06-5.6,18.39-2.13,10.99-4.4,21.95-6.61,32.92Z"/>
  <path class="cls-1" d="M362.19,227.89c.03-7.63-.36-15.25-.56-22.88-.08-2.85-.36-5.76-3.77-6.66-3.47-.91-3.84,2.31-5.16,4.19-1.41,2.01-2.73,4.07-4.17,6.05-.68.94-1.65,1.78-2.93,1.48-1.47-.35-2.06-1.59-2.21-2.94-.22-1.96.03-3.89.79-5.73,4.99-12.2,8.6-24.85,12.88-37.29,2.01-1,2.12-4.62,4.99-4.07,3.29.62,3.53,3.81,4.58,6.38,5.04,12.31,8.63,25.34,17.99,35.59,1.32,1.45,3,3.3.89,5.04-2.28,1.88-3.49-.68-4.81-1.89-2.41-2.23-4.56-4.75-7.05-6.89-1.38-1.19-3.35-1.65-5.18-1-1.94.68-1.23,2.46-1.14,3.8,1.86,29.07,1.32,58.1-1.82,87.07"/>
  <path class="cls-1" d="M108.02,166.86c.03-7.63-.36-15.25-.56-22.88-.08-2.85-.36-5.76-3.77-6.66-3.47-.91-3.84,2.31-5.16,4.19-1.41,2.01-2.73,4.07-4.17,6.05-.68.94-1.65,1.78-2.93,1.48-1.47-.35-2.06-1.59-2.21-2.94-.22-1.96.03-3.89.79-5.73,4.99-12.2,8.6-24.85,12.88-37.29,2.01-1,2.12-4.62,4.99-4.07,3.29.62,3.53,3.81,4.58,6.38,5.04,12.31,8.63,25.34,17.99,35.59,1.32,1.45,3,3.3.89,5.04-2.28,1.88-3.49-.68-4.81-1.89-2.41-2.23-4.56-4.75-7.05-6.89-1.38-1.19-3.35-1.65-5.18-1-1.94.68-1.23,2.46-1.14,3.8,1.86,29.07,1.32,58.1-1.82,87.07"/>
  <path class="cls-2" d="M13.23,182.15c-1.79,8.06-3.86,16.21-3.66,24.41.47,20.14-.32,40.27-.3,60.4.03,29.73,2.2,59.33,5.04,88.91,1.02,10.64-.16,21.42,1.16,32.1.1.79.29,1.57.44,2.36-2-.02-4-.05-6-.07-.55-10.87-1.16-21.73-1.65-32.6-.76-16.56-1.31-33.13-4.01-49.54-.24-1.44-.28-2.92-.28-4.38.08-26.01.18-52.02.26-78.03,0-.8-.15-1.6-.24-2.4.12-1.29.4-2.58.34-3.86-.86-20.88,5.27-40.8,8.38-61.15,2.34-15.34,7.85-29.39,13.18-43.69,4.15-11.16.43-22.19-1.68-33.13-1.04-5.41-2.93-10.66-4.38-15.99-.64-2.37-1.69-4.34-4.48-4.55-2.99-.22-3.2,2.24-3.96,4.18-1.54,3.94-2.94,7.95-4.79,11.74-.86,1.76-2.34,4.2-4.9,3.01-2.36-1.1-1.85-3.65-1.12-5.65,1.74-4.74,3.66-9.41,5.54-14.1,2.12-5.31,3.79-10.74,4.98-16.32.54-2.53,2.12-4.54,5.12-4.49,3.01.06,3.52,2.3,4.05,4.68,1.5,6.71,5.59,12.15,9.9,17.29,2.63,3.13,3.49,5.92.79,9.06-3.21,3.73-2.77,7.51-1.37,11.83,5.44,16.74,3.86,33.05-4.19,48.68-3.01,5.85-4.37,12.06-5.6,18.39-2.13,10.99-4.4,21.95-6.61,32.92Z"/>
  <path class="cls-2" d="M453.23,231.15c-1.79,8.06-3.86,16.21-3.66,24.41.47,20.14-.32,40.27-.3,60.4.03,29.73,2.2,59.33,5.04,88.91,1.02,10.64-.16,21.42,1.16,32.1.1.79.29,1.57.44,2.36-2-.02-4-.05-6-.07-.55-10.87-1.16-21.73-1.65-32.6-.76-16.56-1.31-33.13-4.01-49.54-.24-1.44-.28-2.92-.28-4.38.08-26.01.18-52.02.26-78.03,0-.8-.15-1.6-.24-2.4.12-1.29.4-2.58.34-3.86-.86-20.88,5.27-40.8,8.38-61.15,2.34-15.34,7.85-29.39,13.18-43.69,4.15-11.16.43-22.19-1.68-33.13-1.04-5.41-2.93-10.66-4.38-15.99-.64-2.37-1.69-4.34-4.48-4.55-2.99-.22-3.2,2.24-3.96,4.18-1.54,3.94-2.94,7.95-4.79,11.74-.86,1.76-2.34,4.2-4.9,3.01-2.36-1.1-1.85-3.65-1.12-5.65,1.74-4.74,3.66-9.41,5.54-14.1,2.12-5.31,3.79-10.74,4.98-16.32.54-2.53,2.12-4.54,5.12-4.49,3.01.06,3.52,2.3,4.05,4.68,1.5,6.71,5.59,12.15,9.9,17.29,2.63,3.13,3.49,5.92.79,9.06-3.21,3.73-2.77,7.51-1.37,11.83,5.44,16.74,3.86,33.05-4.19,48.68-3.01,5.85-4.37,12.06-5.6,18.39-2.13,10.99-4.4,21.95-6.61,32.92Z"/>
</svg>