<?xml version="1.0" encoding="UTF-8"?>
<svg id="Layer_1" data-name="Layer 1" xmlns="http://www.w3.org/2000/svg" viewBox="0 0 139.06 538.01">
  <defs>
    <style>
      .cls-1 {
        fill: #f8f8f8;
      }

      .cls-1, .cls-2, .cls-3 {
        stroke-width: 0px;
      }

      .cls-2 {
        fill: #2f2f2f;
      }

      .cls-3 {
        fill: #0f0f0f;
      }
    </style>
  </defs>
  <path class="cls-1" d="M117.79,527.04c1.33,4.43,2.39,9.81-2.04,10.76-6.28,1.34-11.8-4.02-13.97-9.96-8.26-22.63-18.25-17.08-29.01-8.37-7.62,6.17-15.04,12.72-26.23,12.64-9.17-.06-18.13-1.09-24.54-11.18-6.3-9.91-2.52-16.21,3.93-21.45,2.94-2.39,6.75-5.77,3.99-10.1-16.83-26.4,3.21-48.67-6.46-75-5.19-14.12,8.84-15.85,19.13-17.31,12.18,22.87,1.68,43.23,4.72,65.21,1.26,9.09.41,18.66.06,22.67-.49-56.02,2.75-116.43,5.03-177.07-1.74-61.34,1.8-121.71-2.89-183.62-1.06-13.96-3.23-23.25-17.42-28.86-14.23-5.62-16.88-13.17-8.83-25.2,12.38-18.51,27.22-34.69,40-52.77,7.83-11.08,16.86-7.21,23.5,3.99,12.96,21.86,26.45,43.68,36.58,66.76,8.2,18.67,4.48,24.73-14.47,20.91-17.98-3.62-22.15,1.41-20.32,20.1,11.44,116.83,19.68,233.27,21.16,348.89.2,15.44-5.44,32.64,8.1,48.96Z"/>
  <path class="cls-3" d="M117.79,527.04c-11.81,11.77-11.74.31-12.08-8.59-1-26.48-1.63-52.9-2.46-79.35-3.23-103.27-8.65-206.86-20.47-311.12-2.89-25.45,4.22-30.79,25.96-24.22,4.67,1.41,9.54.91,16.36,1.45-14.17-32.98-31.51-62.07-49.78-94.42-19.84,26.02-37.66,49.4-55.74,73.1,34.32,17.71,34.63,17.76,36.23,56.17,2.38,57.25,2.8,114.14-.63,170.25-3.07,2.81-5.91,3.45-8.03-2.48-.7-56.85-2.48-113.93-1.64-170.45.39-25.95-7.11-39.18-33.15-38.89-3.03.03-6.37-1.58-12.36-3.18,12.69-26.87,31.85-46.24,47.73-68.21,27.45-37.97,27.85-37.7,54.47,11.32,10.46,19.26,20,38.97,31.03,57.93,9.04,15.54,8.72,24.83-9.38,19.91-28.67-7.8-31.07,5.09-28.13,31.34,14.26,127.33,18.23,253.41,22.07,379.44Z"/>
  <path class="cls-2" d="M47.15,307.84c2.68.83,5.35,1.65,8.03,2.48-4.81,66.68-9.61,133.37-14.42,200.05.77.22,1.54.44,2.31.66-.16-37.98-.33-75.97-.49-113.95,1.53-29.75,3.05-59.49,4.57-89.24Z"/>
</svg>